<?xml version="1.0" encoding="utf-8"?>
<!-- Generator: Adobe Illustrator 23.0.2, SVG Export Plug-In . SVG Version: 6.00 Build 0)  -->
<svg version="1.1" id="Layer_1" xmlns="http://www.w3.org/2000/svg" xmlns:xlink="http://www.w3.org/1999/xlink" x="0px" y="0px"
	 viewBox="0 0 1000 1000" style="enable-background:new 0 0 1000 1000;" xml:space="preserve">
<style type="text/css">
	.st0{fill:#FFFFFF;}
	.st1{fill:#ED1C24;}
	.st2{fill:none;}
</style>
<rect id="XMLID_7_" x="-4.9" y="-2.96" width="1004" height="1002" style="fill:transparent"/>
<path id="XMLID_166_" class="st1" d="M858,541.82c-8.23-1.85-16.45-3.77-24.69-5.55c-26.04-5.63-52.42-9-78.92-11.23
	c-13.51-1.13-27.09-1.74-40.64-1.8c-22.73-0.1-45.47,0-68.18,0.82c-16.18,0.58-32.33,2.23-48.46,3.83
	c-23.31,2.32-46.59,4.89-69.85,7.63c-18.19,2.14-36.33,4.68-54.48,7.11c-24.26,3.24-48.47,6.88-72.77,9.74
	c-23.96,2.82-47.97,5.24-72.01,7.2c-38.94,3.18-77.97,4.18-116.98,1.94c-24.52-1.41-49.04-3.49-73.2-8.21
	c-13.74-2.69-27.36-5.95-41.03-8.96c-2.05-0.45-4.93-0.34-5.89-1.63c-1.08-1.45-0.45-4.2-0.49-6.38c-0.05-2.2-0.02-4.41-0.01-6.61
	c0.02-3.29,0.12-3.45,3.22-2.84c7.69,1.5,15.44,2.78,23.02,4.73c16.44,4.25,33.27,5.98,50.02,8.24
	c39.85,5.37,79.94,5.79,120.02,5.04c23.68-0.44,47.35-1.9,70.98-3.58c27.23-1.93,54.42-4.41,81.59-7.01
	c17.26-1.65,34.45-4.16,51.7-5.92c17.08-1.75,34.19-3.15,51.31-4.51c20.37-1.61,40.74-3.28,61.13-4.43c16-0.9,32.05-1.32,48.07-1.43
	c22.2-0.16,44.43-0.49,66.59,0.49c20.12,0.89,40.26,2.73,60.22,5.42c25.47,3.43,50.77,8.1,76.14,12.28
	C858.79,536.91,858.93,537.24,858,541.82z"/>
<path id="XMLID_153_" class="st1" d="M162.9,505.32c-0.32-2.6-0.5-5.22-0.99-7.79c-1.41-7.43-2.8-14.86-4.45-22.23
	c-1.97-8.82-7.2-15.71-13.51-21.92c-1.59-1.57-2.93-3.39-4.38-5.1c0.15-0.21,0.3-0.43,0.45-0.64c2.27,0.59,4.62,0.98,6.79,1.81
	c9.88,3.81,19.82,4.16,29.97,1.1c3.51-1.06,7.2-1.5,11.18-1.98C170.74,463.67,164.26,483.32,162.9,505.32z"/>
<circle id="XMLID_92_" class="st1" cx="163.76" cy="430.86" r="15.64"/>
<g>
	<path class="st0" d="M719.72,506.68l0.16,0.8c1.51-1.32,2.69-2.92,3.56-4.8c-0.22-0.09-0.33-0.28-0.33-0.58
		c0-0.43,0.24-0.64,0.73-0.64c0.04,0,0.06,0,0.1,0c0.1-0.28,0.22-0.56,0.31-0.85c0.16-0.53,0.13-1.11,0.27-2.36
		c-0.69,0.83-1.06,1.09-1.17,1.43c-2.96,8.88-13.25,10.14-19.85,7.32c-8.65-3.69-14.3-15.95-11.73-26.03c10.47,0,21,0,31.71,0
		c0.43-8.16-4.79-14.9-12.8-16.87c-8.09-1.99-16.44,0.53-22.08,6.27c0.06,0.01,0.12,0.01,0.18,0.04c0.24,0.12,0.3,0.27,0.18,0.45
		c-0.12,0.18-0.3,0.27-0.54,0.27c-0.18,0-0.3-0.07-0.38-0.17c-3.65,3.98-6.04,9.38-6.28,15.81c-0.13,3.64,0.45,7.03,1.59,10.07
		c0.01-0.33,0.09-0.56,0.26-0.67c0.18-0.12,0.39-0.12,0.63,0c0.36,0.12,0.52,0.6,0.45,1.45c-0.06,0.84-0.21,1.27-0.45,1.27
		c-0.01,0-0.02-0.01-0.02-0.01c5.4,11.2,18.79,16.86,31.73,11.07c1.29-0.58,2.43-1.29,3.46-2.1c0.02-0.14,0.07-0.3,0.16-0.47
		L719.72,506.68z M701.37,479.46c-0.12,0.24-0.27,0.36-0.45,0.36c-0.18,0-0.33-0.12-0.45-0.36c-0.12,0-0.12-0.06,0-0.18
		c0.12-0.12,0.27-0.18,0.45-0.18c0.18,0,0.33,0.06,0.45,0.18C701.49,479.41,701.49,479.46,701.37,479.46z M722.8,479.7
		c0.12,0.12,0.12,0.18,0,0.18c-0.12,0.24-0.27,0.36-0.45,0.36c-0.18,0-0.33-0.12-0.45-0.36c-0.12,0-0.12-0.06,0-0.18
		c0.12-0.12,0.27-0.18,0.45-0.18C722.53,479.52,722.68,479.58,722.8,479.7z M721.98,474.71c0.18,0,0.27,0.27,0.27,0.82
		s-0.06,0.82-0.18,0.82c-0.24,0-0.36-0.27-0.36-0.82S721.8,474.71,721.98,474.71z M718.38,474.72c0,0.54-0.09,0.82-0.27,0.82
		c-0.18,0-0.27-0.27-0.27-0.82s0.06-0.82,0.18-0.82C718.26,473.9,718.38,474.18,718.38,474.72z M717.29,470.37
		c0.12-0.24,0.27-0.36,0.45-0.36c0.18,0,0.33,0.12,0.45,0.36c0.12,0,0.12,0.06,0,0.18c-0.12,0.12-0.27,0.18-0.45,0.18
		c-0.18,0-0.33-0.06-0.45-0.18C717.17,470.43,717.17,470.37,717.29,470.37z M714.68,470.8c0.24,0,0.42,0.12,0.54,0.36
		c0.12,0.24,0,0.36-0.36,0.36s-0.54-0.12-0.54-0.36C714.32,470.92,714.44,470.8,714.68,470.8z M701.29,465.06
		c-0.13,0-0.23-0.03-0.28-0.11c-0.12-0.18-0.06-0.39,0.18-0.63c0.48-0.36,1.03-0.54,1.63-0.54c0.24,0.12,0.3,0.24,0.18,0.36
		c-0.11,0.23-0.43,0.46-0.94,0.7c0.7-0.17,1.41-0.27,2.13-0.28c5.95-0.01,10.69,5.33,11.04,12.07l0.06,0.17
		c0.12,0.48,0.18,0.85,0.18,1.09c0,0.19-0.08,0.23-0.23,0.12c-0.01,0.24-0.01,0.48-0.03,0.73c-1.96,0-3.93,0-5.9,0
		c-0.01,0.09-0.04,0.18-0.11,0.25c-0.24,0.12-0.48,0.12-0.73,0c-0.14-0.07-0.21-0.16-0.23-0.25c-1.31,0-2.62,0-3.94,0
		c-0.03,0.19-0.13,0.3-0.34,0.3c-0.21,0-0.37-0.11-0.49-0.3c-3.78,0-7.55,0-11.33,0C691.76,472.79,696.07,466.79,701.29,465.06z
		 M684.54,490.8c-0.24,0-0.39-0.03-0.45-0.09c-0.06-0.06-0.09-0.15-0.09-0.27c0.24-0.61,0.54-0.73,0.91-0.36
		C685.39,490.56,685.27,490.8,684.54,490.8z M687.45,479.39c-0.24,0.12-0.48,0.12-0.73,0c-0.24-0.12-0.3-0.27-0.18-0.45
		c0.12-0.18,0.3-0.27,0.54-0.27c0.24,0,0.39,0.09,0.45,0.27C687.6,479.12,687.57,479.27,687.45,479.39z M690.88,492.62
		c0.12,0,0.18,0.12,0.18,0.36c0,0.24-0.09,0.36-0.27,0.36C690.61,493.34,690.64,493.1,690.88,492.62z M690.68,500.42
		c-0.3,0-0.45-0.18-0.45-0.54s0.12-0.54,0.36-0.54c0.36,0,0.54,0.18,0.54,0.54S690.98,500.42,690.68,500.42z M693.77,504.87
		c-0.18,0-0.27-0.12-0.27-0.36c0-0.24,0.09-0.36,0.27-0.36c0.18,0,0.27,0.12,0.27,0.36C694.04,504.75,693.95,504.87,693.77,504.87z
		 M694.26,502.06c-0.12,0-0.24-0.12-0.36-0.36c-0.12-0.24-0.18-0.48-0.18-0.73c0-0.24,0-0.42,0-0.54c0.48,0.12,0.79,0.42,0.91,0.91
		C694.62,501.81,694.5,502.06,694.26,502.06z M696.22,503.23c-0.36,0-0.54-0.12-0.54-0.36c0-0.24,0.18-0.36,0.54-0.36
		s0.54,0.12,0.54,0.36C696.77,503.12,696.58,503.23,696.22,503.23z M698.1,508.08c-0.24-0.24-0.24-0.61,0-1.09l0.18-0.73l0.18,0.91
		c0.12,0.48,0.18,0.79,0.18,0.91C698.65,508.2,698.47,508.2,698.1,508.08z M701.91,507.85l0.36-0.18l0.18,0.18
		C702.22,507.97,702.04,507.97,701.91,507.85z M702.82,510.39c-0.24-0.12-0.3-0.3-0.18-0.54c0.36-0.48,0.54-0.36,0.54,0.36
		C703.18,510.45,703.06,510.51,702.82,510.39z"/>
	<path class="st0" d="M575.77,499.69c-0.21,0.71-0.49,1.37-0.81,1.99c0.24,0.2,0.35,0.64,0.3,1.34c-0.06,0.84-0.21,1.27-0.45,1.27
		c-0.28,0-0.52-0.39-0.72-1.17c-4,5.56-12.6,6.56-18.86,3.55c-8.28-3.98-13.48-15.9-11-25.81c1.16,0,2.32,0,3.48,0
		c-0.02-0.11-0.03-0.24-0.03-0.39c0-0.54,0.09-0.82,0.27-0.82c0.18,0,0.27,0.27,0.27,0.82c0,0.15-0.01,0.28-0.02,0.39
		c5.71,0,11.45,0,17.22,0c-0.13-0.07-0.19-0.33-0.19-0.78c0-0.54,0.06-0.82,0.18-0.82c0.24,0,0.36,0.27,0.36,0.82
		c0,0.46-0.07,0.71-0.2,0.78c1.18,0,2.35,0,3.53,0c0-0.53,0.09-0.79,0.27-0.79c0.18,0,0.27,0.27,0.27,0.79c2.13,0,4.26,0,6.4,0
		c0.05-4.64-1.27-8.45-4.2-11.64c-5.21-5.66-14.13-7.41-22.26-4.41c-8.45,3.11-14,10.57-15.23,19.24c0.04-0.01,0.08-0.03,0.13-0.03
		c0.24,0,0.39,0.09,0.45,0.27c0.06,0.18,0.03,0.33-0.09,0.45c-0.19,0.1-0.39,0.09-0.58,0.04c-0.43,3.76-0.06,7.72,1.24,11.64
		c2.49,7.54,9.19,12.86,16.75,14.83c0-0.24,0.12-0.36,0.36-0.36c0.24,0,0.36,0.12,0.36,0.36c0,0.08-0.03,0.12-0.06,0.17
		c6.1,1.42,12.69,0.66,18.03-2.88c0.23-0.15,0.44-0.32,0.65-0.49c-0.11,0.01-0.26,0.02-0.47,0.02c-0.42,0-0.63-0.21-0.63-0.63
		c0-0.43,0.24-0.64,0.73-0.64c0.36,0,0.58,0.06,0.63,0.18c0.06,0.12,0.09,0.24,0.09,0.36c-0.09,0.29-0.15,0.47-0.17,0.57
		c2.9-2.25,4.49-5.29,5-8.98C576.25,499.09,575.87,499.35,575.77,499.69z M572.37,477.73c0.12,0.12,0.18,0.54,0.18,1.27v0.91
		l-0.36-1.09c-0.12-0.48-0.18-0.85-0.18-1.09C572.01,477.48,572.13,477.48,572.37,477.73z M570.01,470.11
		c0.48-0.36,1.03-0.54,1.63-0.54c0.24,0.12,0.3,0.24,0.18,0.36c-0.12,0.24-0.45,0.48-1,0.73c-0.54,0.24-0.88,0.27-1,0.09
		C569.71,470.56,569.77,470.35,570.01,470.11z M538.19,498.72c-0.18,0-0.15-0.24,0.09-0.73c0.12,0,0.18,0.12,0.18,0.36
		C538.46,498.6,538.37,498.72,538.19,498.72z M564.87,466.2c0.24,0,0.39,0.03,0.45,0.09c0.06,0.06,0.09,0.15,0.09,0.27
		c0,0.24-0.12,0.43-0.36,0.54c-0.48,0.24-0.73,0.12-0.73-0.36C564.32,466.39,564.5,466.2,564.87,466.2z M557.29,464.57
		c0.67,0.04,1.32,0.16,1.95,0.33c0.11-0.06,0.26-0.09,0.5-0.09c0.24,0,0.39,0.03,0.45,0.09c0.06,0.06,0.09,0.15,0.09,0.27
		c-0.01,0.03-0.03,0.04-0.04,0.07c4.81,1.91,8.18,7.6,7.36,13.5c-5.49,0-11,0-16.5,0v0.75l-0.25-0.75c-2.1,0-4.19,0-6.28,0
		C544.34,471.14,550.64,464.2,557.29,464.57z M544.07,480.5c-0.18,0-0.27-0.27-0.27-0.82s0.06-0.82,0.18-0.82
		c0.24,0,0.36,0.27,0.36,0.82S544.25,480.5,544.07,480.5z M543.25,475.33c0.12-0.24,0.27-0.36,0.45-0.36c0.18,0,0.33,0.12,0.45,0.36
		c0.12,0,0.12,0.06,0,0.18c-0.12,0.12-0.27,0.18-0.45,0.18c-0.18,0-0.33-0.06-0.45-0.18C543.13,475.39,543.13,475.33,543.25,475.33z
		 M541.62,490.65c0.12-0.24,0.45-0.48,1-0.73c0.54-0.24,0.88-0.27,1-0.09c0.12,0.18,0.06,0.39-0.18,0.63
		c-0.48,0.36-1.03,0.54-1.63,0.54C541.56,490.9,541.5,490.78,541.62,490.65z M541.08,482.85c-0.12-0.12-0.18-0.54-0.18-1.27v-0.91
		l0.36,1.09c0.12,0.48,0.18,0.85,0.18,1.09C541.44,483.1,541.32,483.1,541.08,482.85z M542.73,498.84c-0.24,0-0.54-0.24-0.91-0.73
		c-0.36-0.48-0.49-0.79-0.36-0.91c0.12-0.12,0.36-0.06,0.73,0.18c0.36,0.24,0.6,0.54,0.73,0.91
		C542.91,498.66,542.85,498.84,542.73,498.84z M543.62,501.17c-0.12,0-0.24-0.09-0.36-0.27c-0.12-0.18-0.06-0.27,0.18-0.27
		c0.24,0,0.36,0.12,0.36,0.36C543.8,501.11,543.74,501.17,543.62,501.17z M550.34,507.6c0,0.06-0.21,0.09-0.63,0.09
		c-0.42,0-0.63-0.21-0.63-0.63c0-0.43,0.24-0.64,0.73-0.64c0.36,0,0.58,0.06,0.63,0.18c0.06,0.12,0.09,0.24,0.09,0.36
		C550.4,507.33,550.34,507.54,550.34,507.6z M562.6,510.65c-0.18,0-0.27-0.12-0.27-0.36c0-0.24,0.09-0.36,0.27-0.36
		c0.18,0,0.27,0.12,0.27,0.36C562.87,510.54,562.78,510.65,562.6,510.65z M565.05,509.02c-0.36,0-0.54-0.12-0.54-0.36
		c0-0.24,0.18-0.36,0.54-0.36s0.54,0.12,0.54,0.36C565.59,508.9,565.41,509.02,565.05,509.02z"/>
	<path class="st0" d="M213.82,502.8c-4.85-0.7-9.84-0.43-14.76-0.65c-1.75-0.08-3.59-0.07-5.2-0.63c-1.04-0.36-2.37-1.67-2.41-2.61
		c-0.05-1.12,0.86-2.7,1.84-3.35c1.24-0.83,2.95-1.08,4.5-1.3c2.44-0.34,4.91-0.41,7.37-0.67c8.86-0.92,15.16-7.58,14.12-15.57
		c-0.43-3.36-2.23-6.54-3.55-10.22c2.72-2.48,4.88-2.39,7.41,0.65c0.45,0.54,0.86,1.32,1.44,1.49c1.15,0.34,2.9,0.87,3.5,0.33
		c0.79-0.73,1.38-2.87,0.89-3.56c-0.96-1.35-2.62-2.62-4.22-3.02c-3-0.74-5.99,0.07-8.49,1.96c-1.54,1.17-2.74,1.28-4.45,0.23
		c-0.95-0.58-1.93-1.04-2.94-1.41c0.04,0.05,0.07,0.09,0.11,0.14c0.36,0.48,0.49,0.79,0.36,0.91c-0.12,0.12-0.36,0.06-0.73-0.18
		c-0.36-0.24-0.6-0.54-0.73-0.91c0-0.11,0.01-0.2,0.02-0.28c-1.98-0.59-4.07-0.8-6.23-0.62c-6.33,0.53-12.16,4.98-14.18,10.68
		c0.07,0.05,0.12,0.11,0.15,0.19c0.06,0.18,0.03,0.33-0.09,0.45c-0.09,0.05-0.18,0.06-0.28,0.07c-0.06,0.2-0.12,0.39-0.17,0.59
		c-1.49,6.12,1.23,11.78,7.54,15.72c0.49,0.3,0.94,0.67,1.62,1.16c-2.08,0.76-3.96,1.26-5.67,2.11c-4.94,2.46-5.93,8.19-1.7,11.71
		c2.03,1.69,4.9,2.74,7.55,3.22c1.21,0.22,2.44,0.28,3.68,0.28c-0.02-0.03-0.04-0.05-0.06-0.09c-0.12-0.24-0.18-0.48-0.18-0.73
		c0-0.24,0-0.42,0-0.54c0.48,0.12,0.79,0.42,0.91,0.91c0,0.19-0.02,0.33-0.06,0.45c1.82-0.01,3.66-0.11,5.46,0
		c0.56,0.03,1.12,0.07,1.68,0.12c-0.02-0.07-0.03-0.13-0.03-0.21c0-0.43,0.24-0.64,0.73-0.64c0.36,0,0.58,0.06,0.63,0.18
		c0.06,0.12,0.09,0.24,0.09,0.36c-0.06,0.18-0.11,0.33-0.14,0.44c1.47,0.16,2.92,0.4,4.3,0.84c4.05,1.29,5.84,4.72,5.17,8.95
		c-0.51,3.2-2.31,5.61-5.08,7.02c-7.65,3.91-15.4,3.97-22.91-0.34c0.18,0.29,0.22,0.48,0.13,0.57c-0.12,0.12-0.36,0.06-0.73-0.18
		c-0.36-0.24-0.6-0.54-0.73-0.91c0-0.16,0.01-0.28,0.04-0.37c-2.56-2.11-3.45-5.33-2.6-8.45c1.12-4.11,5.26-5.3,8.38-2.42
		c0.35,0.32,0.78,0.56,1.25,0.89c0.58-3.18-1.09-5.43-4.17-5.88c-1.91-0.28-3.79,0.23-5.34,1.32c0.07,0.22,0.03,0.5-0.14,0.84
		l-0.18,0.73l-0.18-0.91c-0.02-0.08-0.04-0.15-0.06-0.23c-1.29,1.09-2.29,2.6-2.78,4.4c-1.31,4.84,0.91,10.14,5.89,12.27
		c9.71,4.15,19.58,3.9,29.2-0.42c3.4-1.53,5.69-4.38,6.66-8.12C227.47,511.18,222.86,504.11,213.82,502.8z M223.98,467.94
		c0.24,0,0.39,0.03,0.45,0.09c0.06,0.06,0.09,0.15,0.09,0.27c0,0.24-0.12,0.43-0.36,0.54c-0.48,0.24-0.73,0.12-0.73-0.36
		C223.44,468.12,223.62,467.94,223.98,467.94z M215.96,477.95c0.24-0.12,0.48-0.12,0.73,0c0.24,0.12,0.3,0.27,0.18,0.45
		c-0.12,0.18-0.3,0.27-0.54,0.27c-0.24,0-0.39-0.09-0.45-0.27C215.81,478.22,215.84,478.07,215.96,477.95z M215.51,471.54
		c0.18,0,0.27,0.27,0.27,0.82s-0.06,0.82-0.18,0.82c-0.24,0-0.36-0.27-0.36-0.82S215.33,471.54,215.51,471.54z M214.48,486.46
		c0.12-0.18,0.3-0.27,0.54-0.27c0.24,0,0.39,0.09,0.45,0.27c0.06,0.18,0.03,0.33-0.09,0.45c-0.24,0.12-0.48,0.12-0.73,0
		C214.42,486.79,214.36,486.64,214.48,486.46z M197.11,466.95c0.24,0,0.39,0.03,0.45,0.09c0.06,0.06,0.09,0.15,0.09,0.27
		c-0.24,0.61-0.54,0.73-0.91,0.36C196.26,467.19,196.38,466.95,197.11,466.95z M194.49,479.06c-0.19-0.02-0.32-0.1-0.37-0.25
		c-0.06-0.18-0.03-0.33,0.09-0.45c0.1-0.05,0.19-0.06,0.29-0.07c0.12-4.36,1.41-8.72,3.81-11.38c3.15-3.5,8.41-3.25,10.67,1.02
		c1.71,3.23,2.35,7.03,3.4,10.35c-0.76,2.96-1.16,5.66-1.96,8.09c0.06,0.06,0.1,0.13,0.1,0.24c0,0.21-0.11,0.32-0.3,0.34
		c-0.15,0.42-0.32,0.83-0.5,1.23c-0.55,1.18-1.28,2.11-2.11,2.82c0.45,0.46,0.67,0.86,0.67,1.21c-0.12,0.36-0.36,0.54-0.73,0.54
		c-0.24-0.12-0.57-0.45-1-1c0,0,0-0.01-0.01-0.01c-1.27,0.71-2.7,0.95-4.12,0.73c0.07,0.17,0,0.35-0.21,0.57
		c-0.48,0.36-1.03,0.54-1.63,0.54c-0.24-0.12-0.3-0.24-0.18-0.36c0.12-0.24,0.45-0.48,1-0.73c0.16-0.07,0.29-0.12,0.41-0.15
		c-1.63-0.42-3.22-1.44-4.48-3.11C195.43,486.69,194.5,482.91,194.49,479.06z M196.55,492.33c0.42-0.12,0.57-0.36,0.45-0.73
		c-0.12-0.12-0.12-0.3,0-0.54c0.12-0.24,0.24-0.42,0.36-0.54c0.12-0.12,0.24-0.18,0.36-0.18c0.73,0.48,0.6,1.15-0.36,1.99
		c-0.85,0.85-1.33,1.03-1.45,0.54C195.91,492.64,196.12,492.46,196.55,492.33z M188.12,503.66c-0.18,0-0.33-0.15-0.45-0.45
		c-0.12-0.3-0.12-0.51,0-0.63c0.48-0.48,0.73-0.3,0.73,0.54C188.39,503.48,188.3,503.66,188.12,503.66z M189.16,497
		c-0.42,0-0.63-0.18-0.63-0.54c0-0.48,0.21-0.73,0.63-0.73c0.42,0,0.63,0.21,0.63,0.63C189.8,496.79,189.59,497,189.16,497z
		 M196.86,508.35c-0.3,0-0.45-0.18-0.45-0.54s0.12-0.54,0.36-0.54c0.36,0,0.54,0.18,0.54,0.54S197.16,508.35,196.86,508.35z
		 M202.4,503.72c-0.12,0-0.24-0.09-0.36-0.27c-0.12-0.18-0.06-0.27,0.18-0.27c0.24,0,0.36,0.12,0.36,0.36
		C202.58,503.66,202.52,503.72,202.4,503.72z M208.64,503.62c-0.24,0-0.42-0.12-0.54-0.36c0-0.12,0.03-0.21,0.09-0.27
		c0.06-0.06,0.21-0.09,0.45-0.09c0.24,0,0.39,0.03,0.45,0.09c0.06,0.06,0.09,0.15,0.09,0.27
		C209.06,503.5,208.88,503.62,208.64,503.62z M212.61,505.16c-0.06,0.84-0.21,1.27-0.45,1.27c-0.36,0-0.66-0.67-0.91-2
		c0-0.36,0.09-0.61,0.27-0.73c0.18-0.12,0.39-0.12,0.63,0C212.52,503.83,212.68,504.32,212.61,505.16z M184.83,521.49
		c-0.12-0.12-0.18-0.54-0.18-1.27v-0.91l0.36,1.09c0.12,0.48,0.18,0.85,0.18,1.09C185.19,521.74,185.07,521.74,184.83,521.49z
		 M201.86,531.01c-0.42,0-0.63-0.21-0.63-0.63c0-0.43,0.21-0.63,0.63-0.63c0.42,0,0.63,0.18,0.63,0.54
		C202.49,530.77,202.28,531.01,201.86,531.01z M209.73,529.38c-0.24,0.24-0.54,0.36-0.91,0.36l-0.36-0.18l-0.36-0.18
		c0.12-0.36,0.39-0.61,0.82-0.73c0.43-0.12,0.7-0.12,0.82,0C209.97,528.89,209.97,529.13,209.73,529.38z M218.62,507.95
		c-0.3,0-0.45-0.18-0.45-0.54s0.12-0.54,0.36-0.54c0.36,0,0.54,0.18,0.54,0.54S218.92,507.95,218.62,507.95z M221.08,521.82
		c-0.24,0-0.36-0.06-0.36-0.18c0-0.24,0.12-0.36,0.36-0.36c0.24,0,0.36,0.09,0.36,0.27C221.44,521.73,221.32,521.82,221.08,521.82z
		 M221.71,512.39c-0.18,0-0.27-0.12-0.27-0.36c0-0.24,0.09-0.36,0.27-0.36c0.18,0,0.27,0.12,0.27,0.36
		C221.99,512.27,221.9,512.39,221.71,512.39z M224.16,510.03c0.36,0,0.54,0.12,0.54,0.36c0,0.24-0.18,0.36-0.54,0.36
		s-0.54-0.12-0.54-0.36C223.62,510.15,223.8,510.03,224.16,510.03z M224.16,519.28c0.36,0,0.54,0.12,0.54,0.36
		c0,0.24-0.18,0.36-0.54,0.36s-0.54-0.12-0.54-0.36C223.62,519.4,223.8,519.28,224.16,519.28z M222.56,508.85
		c0,0.48-0.12,0.73-0.36,0.73c-0.12,0-0.24-0.12-0.36-0.36c-0.12-0.24-0.18-0.48-0.18-0.73c0-0.24,0-0.42,0-0.54
		C222.13,508.07,222.44,508.37,222.56,508.85z"/>
	<path class="st0" d="M756.13,464.52c0.02,0.05,0.05,0.09,0.07,0.13c0.05-0.05,0.09-0.09,0.14-0.13
		C756.27,464.52,756.2,464.52,756.13,464.52z"/>
	<path class="st0" d="M865.65,509.4c-4.73-1.49-5.75-2.75-6.12-7.69c-0.11-1.49-0.15-2.99-0.15-4.49
		c-0.02-8.82-0.03-17.64-0.04-26.46c-0.05-0.13-0.09-0.26-0.09-0.38c0.02-0.07,0.05-0.13,0.09-0.18c0-1.21,0-2.42-0.01-3.63
		c0-1-0.08-2.01-0.14-3.22c-5.36,0.69-10.34,1.34-15.32,1.98c-0.09,0.18-0.18,0.37-0.26,0.55c0.13-0.15,0.31-0.23,0.54-0.23
		c0.19,0.09,0.43,0.32,0.72,0.66c6.38,1.46,6.26,6.73,6.31,11.88c0.05,5.37,0.08,10.75,0.01,16.12c-0.01,0.59-0.02,1.19-0.03,1.78
		c0.01,0.01,0.03,0.01,0.04,0.02c0.06,0.06,0.09,0.15,0.09,0.27c-0.04,0.07-0.09,0.12-0.14,0.17c-0.05,1.86-0.14,3.71-0.32,5.55
		c0.27,0.02,0.44,0.07,0.49,0.17c0.06,0.12,0.09,0.24,0.09,0.36c-0.12,0.36-0.18,0.57-0.18,0.63c0,0.05-0.18,0.08-0.53,0.09
		c-0.37,2.95-1.53,4.63-3.8,5.52c0.02,0.11,0.03,0.19,0.03,0.24c0,0.12-0.18,0.12-0.54,0c-0.02-0.02-0.02-0.04-0.04-0.05
		c-0.52,0.16-1.08,0.31-1.71,0.41c-4.13,0.64-7.48-1.15-10.18-3.96c-6.47-6.72-12.77-13.61-19.13-20.44
		c-1.12-1.2-2.18-2.46-3.32-3.76c0.46-0.5,0.91-1,1.36-1.48c-0.04-0.08-0.04-0.17,0.03-0.27c0.1-0.15,0.26-0.23,0.45-0.25
		c1.2-1.31,2.35-2.57,3.52-3.8c4.44-4.67,8.18-10.39,15.85-10.31c-0.07-0.21-0.14-0.43-0.22-0.64c-1.04,0-2.09,0-3.13,0
		c0.05,0.07,0.05,0.14-0.02,0.21c-0.12,0.24-0.45,0.48-1,0.73c-0.54,0.24-0.88,0.27-1,0.09c-0.12-0.18-0.06-0.39,0.18-0.63
		c0.23-0.17,0.48-0.31,0.74-0.4c-5.51,0-11.01,0-16.52,0c0.61,0.48,1.25,0.72,1.89,0.89c0-0.53,0.09-0.8,0.27-0.8
		c0.18,0,0.27,0.27,0.27,0.82c0,0.05,0,0.08,0,0.13c0.17,0.04,0.35,0.08,0.52,0.13c2.66,0.69,3.82,2.66,2.82,5.21
		c-0.56,1.44-1.44,2.84-2.46,4.02c-2.83,3.26-5.73,6.45-8.64,9.65c0.17,0.26,0.26,0.49,0.26,0.71c-0.12,0.36-0.36,0.54-0.73,0.54
		c-0.11-0.06-0.24-0.16-0.39-0.31c-0.6,0.66-1.2,1.32-1.8,1.99c-0.2,0.22-0.53,0.31-1.22,0.7c0-18.31,0-36.21,0-54.44
		c-4.56,0.6-8.86,1.16-13.12,1.71c0.01,0.02,0.03,0.02,0.03,0.04c0,0.24-0.12,0.36-0.36,0.36c-0.24,0-0.36-0.09-0.36-0.27
		c0-0.02,0.02-0.02,0.02-0.04c-0.56,0.07-1.11,0.15-1.67,0.22c-0.12,0.28-0.25,0.56-0.37,0.83c7.62,0.72,7.7,6.16,7.72,11.5
		c0.04,12.52,0.04,25.05,0.03,37.57c0.1-0.11,0.27-0.21,0.52-0.28c0.42-0.12,0.57-0.36,0.45-0.73c-0.12-0.12-0.12-0.3,0-0.54
		c0.12-0.24,0.24-0.42,0.36-0.54c0.12-0.12,0.24-0.18,0.36-0.18c0.73,0.48,0.6,1.15-0.36,1.99c-0.68,0.68-1.12,0.92-1.33,0.75
		c0,3.53,0,7.06-0.01,10.59c0,2.11-0.11,4.23-0.38,6.33c-0.52,4.02-2.46,5.92-6.49,6.43c-3.28,0.42-6.28-0.66-8.49-2.89
		c-3.06-3.09-6.08-6.22-9.1-9.36c-0.07,0.69-0.21,1.05-0.43,1.05c-0.36,0-0.66-0.67-0.91-2c0-0.15,0.03-0.28,0.06-0.39
		c-3.36-3.5-6.73-7.02-10.11-10.56c-0.2,0.04-0.4,0.08-0.61,0.08c-0.24-0.12-0.3-0.24-0.18-0.36c0.05-0.09,0.14-0.19,0.25-0.28
		c-1.02-1.07-2.04-2.13-3.07-3.21c3.67-3.96,6.93-7.51,10.23-11.03c2.79-2.98,5.98-5.2,10.26-5.32c0.24-0.01,0.47-0.27,1.24-0.73
		c-3.75,0-7.32,0-10.82,0c-0.1,0.05-0.21,0.11-0.33,0.16c-0.54,0.24-0.88,0.27-1,0.09c-0.05-0.08-0.06-0.16-0.05-0.25
		c-2.58,0-5.13,0-7.67,0c-0.1,0.07-0.24,0.14-0.42,0.19c-0.27,0.08-0.41,0.21-0.46,0.38c0.14,0.14,0.3,0.21,0.46,0.25
		c5.75,1.32,6.89,4.07,3.15,8.6c-0.69,0.84-1.41,1.66-2.12,2.49c0.08,0.36,0.13,0.67,0.13,0.86c0,0.24-0.12,0.24-0.36,0
		c-0.06-0.06-0.11-0.21-0.14-0.43c-3.2,3.68-6.55,7.25-9.82,10.87c-0.12,0.14-0.45,0.09-1.02,0.19c0-18.04,0-35.94,0-54.14
		c-1.26,0.17-2.5,0.33-3.72,0.49c-0.04,0.13-0.12,0.21-0.23,0.21c-0.1,0-0.19-0.05-0.27-0.14c-3.84,0.51-7.53,1-11.22,1.48
		c0.01,0.25,0.01,0.49,0.02,0.74c0.38,0.14,0.76,0.36,1.15,0.41c3.65,0.45,5.32,2.8,5.84,6.17c0.23,1.47,0.33,2.98,0.33,4.47
		c0.01,4.35,0.01,8.71,0.01,13.06c0.05,0.01,0.1,0.03,0.13,0.05c0.06,0.06,0.09,0.15,0.09,0.27c0,0.18-0.09,0.31-0.22,0.42
		c0,1.28,0,2.55,0,3.83c0.15,0.15,0.31,0.34,0.49,0.57c0.42,0.54,0.69,1,0.82,1.36c0,0.51-0.44,0.46-1.3-0.16c0,0.94,0,1.87,0,2.81
		c0.15,0.03,0.29,0.13,0.39,0.34c0.12,0,0.12,0.06,0,0.18c-0.1,0.1-0.24,0.16-0.39,0.17c0,8.39-0.01,16.77-0.02,25.16
		c0.02,0.05,0.05,0.09,0.05,0.15c0,0.06-0.02,0.11-0.05,0.14c0,0.79,0,1.59,0,2.38c0,1.46-0.13,2.94-0.33,4.39
		c0.06-0.01,0.13-0.02,0.21-0.02c0.36,0,0.54,0.12,0.54,0.36c0,0.24-0.18,0.36-0.54,0.36c-0.13,0-0.23-0.02-0.31-0.05
		c-0.04,0.24-0.07,0.49-0.11,0.73c-0.48,2.77-2.12,4.56-4.97,5.16c-0.81,0.17-1.59,0.5-2.38,0.76c0.06,0.23,0.12,0.47,0.18,0.7
		c7.46,0,14.93,0,22.39-0.01c0.4,0,0.8-0.13,1.19-0.19c0.03-0.19,0.05-0.39,0.08-0.58c-0.54-0.22-1.07-0.47-1.63-0.65
		c-4.5-1.45-5.66-2.9-5.89-7.58c-0.12-2.46,0.07-4.95-0.21-7.39c-0.35-3.12,1.05-5.15,3.38-6.8c0.24,0.12,0.43,0.16,0.53,0.27
		c1.42,1.55,2.84,3.12,4.26,4.67c0.02,0.02,0.04,0.03,0.06,0.06c1.53,1.68,3.06,3.35,4.59,5.03c1.89,2.09,3.86,4.12,5.61,6.33
		c1.09,1.39,1.34,2.66,0.84,3.68l0.22-0.11l0.18,0.18c-0.19,0.1-0.34,0.09-0.46,0.03c-0.43,0.78-1.3,1.4-2.59,1.8
		c-0.49,0.15-0.96,0.41-1.43,0.62c0.04,0.11,0.08,0.23,0.12,0.34c8.66,0,17.31,0,25.97,0c-0.07-0.11-0.08-0.23,0-0.39
		c0.36-0.48,0.54-0.36,0.54,0.36c0,0.01,0,0.02,0,0.03c7.38,0,14.77,0,22.15,0c-0.55-0.72-1.17-0.96-1.8-1.17
		c-4.24-1.39-5.49-2.93-5.75-7.45c-0.15-2.64,0.09-5.31-0.2-7.92c-0.35-3.12,1.4-4.79,3.61-6.52c4.01,4.42,7.92,8.72,11.81,13.03
		c1.12,1.24,2.3,2.46,3.23,3.83c1.69,2.5,0.96,4.32-1.91,5.2c-0.56,0.17-1.1,0.41-1.65,0.61c0.05,0.12,0.1,0.23,0.15,0.35
		c3.73,0,7.47,0,11.2,0c0.26-0.34,0.43-0.34,0.49,0c10.02,0,20.04,0,30.06,0c-0.03-0.38,0.24-0.82,0.82-1.33
		c0.85-0.85,1.33-1.03,1.45-0.54c0,0.24-0.21,0.42-0.63,0.54c-0.42,0.12-0.57,0.36-0.45,0.73c0.12,0.12,0.12,0.3,0,0.54
		c-0.01,0.02-0.02,0.04-0.03,0.06c1.92,0,3.84,0,5.76,0C866.58,509.76,866.13,509.55,865.65,509.4z M851.3,465.17
		c-0.12,0.24-0.45,0.48-1,0.73c-0.54,0.24-0.88,0.27-1,0.09c-0.12-0.18-0.06-0.39,0.18-0.63c0.48-0.36,1.03-0.54,1.63-0.54
		C851.36,464.93,851.42,465.05,851.3,465.17z M818.93,465.51c0.85-0.85,1.33-1.03,1.45-0.54c0,0.24-0.21,0.42-0.63,0.54
		c-0.42,0.12-0.57,0.36-0.45,0.73c0.12,0.12,0.12,0.3,0,0.54c-0.12,0.24-0.24,0.42-0.36,0.54c-0.12,0.12-0.24,0.18-0.36,0.18
		C817.84,467.02,817.96,466.36,818.93,465.51z M760.66,473.31c0.24,0,0.36,0.27,0.36,0.82s-0.09,0.82-0.27,0.82
		c-0.18,0-0.27-0.27-0.27-0.82S760.54,473.31,760.66,473.31z M745.77,444.78c0.18,0,0.27,0.12,0.27,0.36c0,0.24-0.09,0.36-0.27,0.36
		c-0.18,0-0.27-0.12-0.27-0.36C745.5,444.89,745.59,444.78,745.77,444.78z M746.48,464.01c0.12,0.24,0,0.36-0.36,0.36
		s-0.54-0.12-0.54-0.36c0-0.24,0.12-0.36,0.36-0.36C746.17,463.65,746.36,463.77,746.48,464.01z M745.29,447.59
		c0.12,0,0.24,0.12,0.36,0.36c0.12,0.24,0.18,0.48,0.18,0.73c0,0.24,0,0.42,0,0.54c-0.48-0.12-0.79-0.42-0.91-0.91
		C744.93,447.83,745.05,447.59,745.29,447.59z M744.21,456.18c0.24,0,0.54,0.24,0.91,0.73c0.36,0.48,0.49,0.79,0.36,0.91
		c-0.12,0.12-0.36,0.06-0.73-0.18c-0.36-0.24-0.6-0.54-0.73-0.91C744.03,456.36,744.09,456.18,744.21,456.18z M745.32,495.56
		c-0.12,0.24-0.3,0.36-0.54,0.36c-0.24,0-0.42-0.12-0.54-0.36c0-0.12,0.03-0.21,0.09-0.27c0.06-0.06,0.21-0.09,0.45-0.09
		c0.24,0,0.39,0.03,0.45,0.09C745.29,495.35,745.32,495.44,745.32,495.56z M743.32,437.16c0.36,0,0.54,0.12,0.54,0.36
		c0,0.24-0.18,0.36-0.54,0.36s-0.54-0.12-0.54-0.36C742.78,437.28,742.96,437.16,743.32,437.16z M743.32,446.41
		c0.36,0,0.54,0.12,0.54,0.36c0,0.24-0.18,0.36-0.54,0.36s-0.54-0.12-0.54-0.36C742.78,446.53,742.96,446.41,743.32,446.41z
		 M743.51,454.39c-0.24,0-0.36-0.12-0.36-0.36c0-0.12,0.06-0.18,0.18-0.18c0.12,0,0.24,0.09,0.36,0.27
		C743.81,454.3,743.75,454.39,743.51,454.39z M742.78,479.51c0.12-0.12,0.27-0.18,0.45-0.18c0.18,0,0.33,0.06,0.45,0.18
		c0.12,0.12,0.12,0.18,0,0.18c-0.12,0.24-0.27,0.36-0.45,0.36c-0.18,0-0.33-0.12-0.45-0.36
		C742.66,479.69,742.66,479.63,742.78,479.51z M740.42,508.3c-0.24-0.24-0.24-0.61,0-1.09l0.18-0.73l0.18,0.91
		c0.12,0.48,0.18,0.79,0.18,0.91C740.97,508.42,740.78,508.42,740.42,508.3z M741.26,475.76c-0.18,0-0.27-0.27-0.27-0.82
		s0.06-0.82,0.18-0.82c0.24,0,0.36,0.27,0.36,0.82S741.44,475.76,741.26,475.76z M741.44,442.65l-0.18,0.73l-0.18-0.91
		c-0.12-0.48-0.18-0.79-0.18-0.91c0-0.12,0.18-0.12,0.54,0C741.68,441.81,741.68,442.17,741.44,442.65z M741.87,482.68
		c0-0.61,0.61-0.43,1.81,0.54c0.49,0.48,0.73,0.91,0.73,1.27c-0.12,0.36-0.36,0.54-0.73,0.54c-0.24-0.12-0.57-0.45-1-1
		C742.27,483.5,742,483.04,741.87,482.68z M743.51,489.23c-0.24,0-0.39-0.03-0.45-0.09c-0.06-0.06-0.09-0.15-0.09-0.27
		c0-0.24,0.12-0.43,0.36-0.54c0.48-0.24,0.73-0.12,0.73,0.36C744.05,489.04,743.87,489.23,743.51,489.23z M743.99,501.91
		c0-0.43,0.24-0.64,0.73-0.64c0.36,0,0.58,0.06,0.63,0.18c0.06,0.12,0.09,0.24,0.09,0.36c-0.12,0.36-0.18,0.57-0.18,0.63
		c0,0.06-0.21,0.09-0.63,0.09C744.2,502.54,743.99,502.33,743.99,501.91z M744.23,508.07l0.36-0.18l0.18,0.18
		C744.53,508.19,744.35,508.19,744.23,508.07z M745.14,510.61c-0.24-0.12-0.3-0.3-0.18-0.54c0.36-0.48,0.54-0.36,0.54,0.36
		C745.5,510.67,745.38,510.73,745.14,510.61z M745.5,472.16c0-0.24,0.12-0.24,0.36,0c0.12,0.12,0.18,0.54,0.18,1.27v0.91l-0.36-1.09
		C745.56,472.77,745.5,472.4,745.5,472.16z M746.29,479.26c-0.24,0-0.42-0.12-0.54-0.36c-0.12-0.24,0-0.36,0.36-0.36
		s0.54,0.12,0.54,0.36C746.66,479.14,746.54,479.26,746.29,479.26z M746.41,435.89c-0.24,0-0.36-0.09-0.36-0.27
		c0-0.18,0.12-0.27,0.36-0.27c0.24,0,0.36,0.06,0.36,0.18C746.77,435.77,746.65,435.89,746.41,435.89z M747.54,505.76
		c0.24,0,0.36,0.12,0.36,0.36c0,0.24-0.12,0.36-0.36,0.36c-0.24,0-0.36-0.12-0.36-0.36C747.17,505.88,747.3,505.76,747.54,505.76z
		 M759.41,493.29c-0.24,0-0.54-0.24-0.91-0.73c-0.36-0.48-0.49-0.79-0.36-0.91c0.12-0.12,0.36-0.06,0.73,0.18
		c0.36,0.24,0.6,0.54,0.73,0.91C759.6,493.1,759.53,493.29,759.41,493.29z M760.3,495.62c-0.12,0-0.24-0.09-0.36-0.27
		c-0.12-0.18-0.06-0.27,0.18-0.27c0.24,0,0.36,0.12,0.36,0.36C760.48,495.56,760.42,495.62,760.3,495.62z M766.08,494.88
		c0.06-0.06,0.21-0.09,0.45-0.09c0.24,0,0.39,0.03,0.45,0.09c0.06,0.06,0.09,0.15,0.09,0.27c-0.12,0.24-0.3,0.36-0.54,0.36
		c-0.24,0-0.42-0.12-0.54-0.36C765.99,495.03,766.02,494.94,766.08,494.88z M766.39,502.14c-0.42,0-0.63-0.21-0.63-0.63
		c0-0.43,0.24-0.64,0.73-0.64c0.36,0,0.58,0.06,0.63,0.18c0.06,0.12,0.09,0.24,0.09,0.36c-0.12,0.36-0.18,0.57-0.18,0.63
		C767.02,502.11,766.81,502.14,766.39,502.14z M766.9,510.21c-0.24-0.12-0.3-0.3-0.18-0.54c0.36-0.48,0.54-0.36,0.54,0.36
		C767.26,510.27,767.14,510.33,766.9,510.21z M769.3,506.08c-0.24,0-0.36-0.12-0.36-0.36c0-0.24,0.12-0.36,0.36-0.36
		c0.24,0,0.36,0.12,0.36,0.36C769.66,505.96,769.54,506.08,769.3,506.08z M795.99,493.64c0.12,0,0.18,0.12,0.18,0.36
		c0,0.24-0.09,0.36-0.27,0.36C795.72,494.37,795.75,494.13,795.99,493.64z M795.78,501.45c-0.3,0-0.45-0.18-0.45-0.54
		s0.12-0.54,0.36-0.54c0.36,0,0.54,0.18,0.54,0.54S796.08,501.45,795.78,501.45z M807.38,508.69l0.18,0.18
		c-0.24,0.12-0.42,0.12-0.54,0L807.38,508.69z M801.15,461.44c0.24,0,0.39,0.03,0.45,0.09c0.06,0.06,0.09,0.15,0.09,0.27
		c0,0.24-0.12,0.43-0.36,0.54c-0.48,0.24-0.73,0.12-0.73-0.36C800.6,461.62,800.78,461.44,801.15,461.44z M800.66,448.76
		c0,0.43-0.24,0.64-0.73,0.64c-0.36,0-0.58-0.06-0.63-0.18c-0.06-0.12-0.09-0.24-0.09-0.36c0.12-0.36,0.18-0.57,0.18-0.63
		c0-0.06,0.21-0.09,0.63-0.09C800.45,448.13,800.66,448.34,800.66,448.76z M801.15,486.12c-0.48,0.36-1.03,0.54-1.63,0.54
		c-0.24-0.12-0.3-0.24-0.18-0.36c0.12-0.24,0.45-0.48,1-0.73c0.54-0.24,0.88-0.27,1-0.09C801.45,485.67,801.39,485.88,801.15,486.12
		z M801.51,496.64c0,0.12-0.06,0.18-0.18,0.18c-0.12,0-0.24-0.09-0.36-0.27c-0.12-0.18-0.06-0.27,0.18-0.27
		C801.39,496.28,801.51,496.4,801.51,496.64z M799.42,455.38c-0.06-0.06-0.09-0.15-0.09-0.27c0.12-0.24,0.3-0.36,0.54-0.36
		c0.24,0,0.42,0.12,0.54,0.36c0,0.12-0.03,0.21-0.09,0.27c-0.06,0.06-0.21,0.09-0.45,0.09
		C799.63,455.47,799.48,455.44,799.42,455.38z M800.42,442.59l-0.36,0.18l-0.18-0.18C800.12,442.47,800.3,442.47,800.42,442.59z
		 M799.52,440.05c0.24,0.12,0.3,0.3,0.18,0.54c-0.36,0.48-0.54,0.36-0.54-0.36C799.15,439.99,799.27,439.94,799.52,440.05z
		 M799.15,478.5c0,0.24-0.12,0.24-0.36,0c-0.12-0.12-0.18-0.54-0.18-1.27v-0.91l0.36,1.09C799.09,477.9,799.15,478.26,799.15,478.5z
		 M795.67,460.77c-0.48-0.48-0.36-0.73,0.36-0.73c0.24,0,0.39,0.03,0.45,0.09c0.06,0.06,0.09,0.15,0.09,0.27
		C796.33,461.02,796.03,461.13,795.67,460.77z M796.99,454.65c-0.18,0.12-0.39,0.12-0.63,0c-0.36-0.12-0.52-0.6-0.45-1.45
		c0.06-0.84,0.21-1.27,0.45-1.27c0.36,0,0.66,0.67,0.91,2C797.26,454.29,797.17,454.54,796.99,454.65z M797.12,444.91
		c-0.24,0-0.36-0.12-0.36-0.36c0-0.24,0.12-0.36,0.36-0.36c0.24,0,0.36,0.12,0.36,0.36C797.48,444.79,797.36,444.91,797.12,444.91z
		 M797.38,435.25c-0.12-0.06-0.12-0.15,0-0.27c0-0.24,0.15-0.36,0.45-0.36c0.3,0,0.51,0.12,0.63,0.36c0,0.12-0.06,0.21-0.18,0.27
		c-0.12,0.06-0.27,0.09-0.45,0.09S797.5,435.31,797.38,435.25z M798,471.77c0-0.24,0.12-0.36,0.36-0.36c0.24,0,0.42,0.12,0.54,0.36
		c0.12,0.24,0,0.36-0.36,0.36S798,472.02,798,471.77z M798.88,505.89c-0.18,0-0.27-0.12-0.27-0.36c0-0.24,0.09-0.36,0.27-0.36
		c0.18,0,0.27,0.12,0.27,0.36C799.15,505.77,799.06,505.89,798.88,505.89z M799.36,503.08c-0.12,0-0.24-0.12-0.36-0.36
		c-0.12-0.24-0.18-0.48-0.18-0.73c0-0.24,0-0.42,0-0.54c0.48,0.12,0.79,0.42,0.91,0.91C799.73,502.84,799.6,503.08,799.36,503.08z
		 M800.44,494.49c-0.24,0-0.54-0.24-0.91-0.73c-0.36-0.48-0.49-0.79-0.36-0.91c0.12-0.12,0.36-0.06,0.73,0.18
		c0.36,0.24,0.6,0.54,0.73,0.91C800.63,494.31,800.56,494.49,800.44,494.49z M801.33,504.26c-0.36,0-0.54-0.12-0.54-0.36
		c0-0.24,0.18-0.36,0.54-0.36s0.54,0.12,0.54,0.36C801.87,504.14,801.69,504.26,801.33,504.26z M801.87,471.16
		c-0.12,0.12-0.27,0.18-0.45,0.18c-0.18,0-0.33-0.06-0.45-0.18c-0.12-0.12-0.12-0.18,0-0.18c0.12-0.24,0.27-0.36,0.45-0.36
		c0.18,0,0.33,0.12,0.45,0.36C801.99,470.98,801.99,471.04,801.87,471.16z M800.97,467.44c-0.49-0.48-0.73-0.91-0.73-1.27
		c0.12-0.36,0.36-0.54,0.73-0.54c0.24,0.12,0.57,0.45,1,1c0.42,0.54,0.69,1,0.82,1.36C802.78,468.59,802.17,468.41,800.97,467.44z
		 M803.21,508.01l0.18-0.73l0.18,0.91c0.12,0.48,0.18,0.79,0.18,0.91c0,0.12-0.18,0.12-0.54,0
		C802.97,508.86,802.97,508.5,803.21,508.01z M811.41,491.42c-0.24,0-0.39-0.03-0.45-0.09c-0.06-0.06-0.09-0.15-0.09-0.27
		c0.24-0.61,0.54-0.73,0.91-0.36C812.26,491.18,812.14,491.42,811.41,491.42z M817.66,493.97c-0.18,0-0.15-0.24,0.09-0.73
		c0.12,0,0.18,0.12,0.18,0.36C817.93,493.85,817.84,493.97,817.66,493.97z M822.91,495.88c0.24,0,0.36,0.12,0.36,0.36
		c0,0.12-0.06,0.18-0.18,0.18c-0.12,0-0.24-0.09-0.36-0.27C822.6,495.97,822.66,495.88,822.91,495.88z M821.12,502.68
		c-0.12,0-0.24-0.12-0.36-0.36c-0.12-0.24-0.18-0.48-0.18-0.73c0-0.24,0-0.42,0-0.54c0.48,0.12,0.79,0.42,0.91,0.91
		C821.49,502.44,821.36,502.68,821.12,502.68z M822.2,494.09c-0.24,0-0.54-0.24-0.91-0.73c-0.36-0.48-0.49-0.79-0.36-0.91
		c0.12-0.12,0.36-0.06,0.73,0.18c0.36,0.24,0.6,0.54,0.73,0.91C822.39,493.9,822.32,494.09,822.2,494.09z M823.09,503.86
		c-0.36,0-0.54-0.12-0.54-0.36c0-0.24,0.18-0.36,0.54-0.36s0.54,0.12,0.54,0.36C823.63,503.74,823.45,503.86,823.09,503.86z
		 M824.97,508.7c-0.24-0.24-0.24-0.61,0-1.09l0.18-0.73l0.18,0.91c0.12,0.48,0.18,0.79,0.18,0.91
		C825.52,508.82,825.33,508.82,824.97,508.7z M828.78,508.47l0.36-0.18l0.18,0.18C829.08,508.59,828.9,508.59,828.78,508.47z
		 M829.81,502.85c0,0.06-0.21,0.09-0.63,0.09c-0.42,0-0.63-0.21-0.63-0.63c0-0.43,0.24-0.64,0.73-0.64c0.36,0,0.58,0.06,0.63,0.18
		c0.06,0.12,0.09,0.24,0.09,0.36C829.87,502.58,829.81,502.79,829.81,502.85z M832.09,506.89c-0.24,0-0.36-0.12-0.36-0.36
		c0-0.24,0.12-0.36,0.36-0.36c0.24,0,0.36,0.12,0.36,0.36C832.45,506.76,832.33,506.89,832.09,506.89z M850.21,508.89l0.36-0.18
		l0.18,0.18C850.52,509,850.33,509,850.21,508.89z M851.48,472.97c0-0.24,0.12-0.24,0.36,0c0.12,0.12,0.18,0.54,0.18,1.27v0.91
		l-0.36-1.09C851.54,473.58,851.48,473.21,851.48,472.97z M852.28,480.07c-0.24,0-0.42-0.12-0.54-0.36c-0.12-0.24,0-0.36,0.36-0.36
		s0.54,0.12,0.54,0.36C852.64,479.95,852.52,480.07,852.28,480.07z M853.52,507.3c-0.24,0-0.36-0.12-0.36-0.36
		c0-0.24,0.12-0.36,0.36-0.36c0.24,0,0.36,0.12,0.36,0.36C853.88,507.18,853.76,507.3,853.52,507.3z M854.73,498.28
		c-0.06,0.84-0.21,1.27-0.45,1.27c-0.36,0-0.66-0.67-0.91-2c0-0.36,0.09-0.61,0.27-0.73c0.18-0.12,0.39-0.12,0.63,0
		C854.64,496.94,854.79,497.43,854.73,498.28z M854.6,491.43c-0.24,0-0.39-0.03-0.45-0.09c-0.06-0.06-0.09-0.15-0.09-0.27
		c0.24-0.61,0.54-0.73,0.91-0.36C855.45,491.19,855.33,491.43,854.6,491.43z M855.16,466.05c-0.42,0.12-0.57,0.36-0.45,0.73
		c0.12,0.12,0.12,0.3,0,0.54c-0.12,0.24-0.24,0.42-0.36,0.54c-0.12,0.12-0.24,0.18-0.36,0.18c-0.73-0.48-0.6-1.15,0.36-1.99
		c0.85-0.85,1.33-1.03,1.45-0.54C855.8,465.74,855.59,465.92,855.16,466.05z M857.51,480.02c-0.24,0.12-0.48,0.12-0.73,0
		c-0.24-0.12-0.3-0.27-0.18-0.45c0.12-0.18,0.3-0.27,0.54-0.27c0.24,0,0.39,0.09,0.45,0.27
		C857.66,479.75,857.63,479.9,857.51,480.02z"/>
	<path class="st0" d="M145.07,490.65c-1.51,5.99-3.92,10.21-7.55,12.96l0.09,0.09c-0.13,0.06-0.24,0.09-0.33,0.08
		c-3.27,2.39-7.49,3.63-12.95,3.89c-0.62,0.03-1.23,0.09-1.85,0.09c-10.88,0.03-17.63-3.59-17.89-16.7c-0.03-1.41-0.1-2.82-0.1-4.23
		c-0.02-6.96-0.03-13.92-0.04-20.88c-0.12,0.17-0.3,0.26-0.53,0.26c-0.24,0-0.39-0.09-0.45-0.27c-0.06-0.18-0.03-0.33,0.09-0.45
		c0.24-0.12,0.48-0.12,0.73,0c0.07,0.04,0.12,0.08,0.16,0.12c-0.01-4.29-0.01-8.58,0-12.87c0-2.55,0.06-5.12,0.34-7.65
		c0.29-2.63,1.18-4.68,2.64-6.19c-0.15-0.04-0.24-0.13-0.24-0.32c0-0.24,0.12-0.36,0.36-0.36c0.21,0,0.31,0.11,0.34,0.3
		c1.43-1.27,3.3-2.11,5.67-2.49c0.77-0.12,1.54-0.29,2.31-0.43c-0.03-0.24-0.06-0.48-0.09-0.72c-1.96,0-3.92,0-5.88,0
		c-0.09,0.06-0.16,0.06-0.21,0c-9.27,0-18.54,0-27.81,0c0.17,0.17,0.36,0.39,0.58,0.67c0.11,0.15,0.19,0.27,0.28,0.4
		c0.01,0,0.03,0.01,0.04,0.01c5.99,0.9,8.72,3.66,9.37,9.61c0.16,1.49,0.29,2.99,0.29,4.48c0.04,11.45,0.09,22.91,0.05,34.36
		c-0.02,4.75-0.03,9.52-0.41,14.25c-0.45,5.64-3.63,8.65-9.29,9.42c-0.61,0.08-1.2,0.28-1.8,0.43c0.03,0.21,0.06,0.43,0.09,0.64
		c9.07,0,18.14,0,27.24,0c0.01-0.21,0.12-0.33,0.35-0.33c0.24,0,0.36,0.09,0.36,0.27c0,0.02-0.02,0.03-0.02,0.05
		c12.48,0,25.01,0,37.69,0c0-7.44,0-14.75,0-22.06c-0.2-0.04-0.4-0.09-0.61-0.13C145.77,488.19,145.39,489.41,145.07,490.65z
		 M110.87,436.63l-0.36,0.18l-0.18-0.18C110.57,436.51,110.75,436.51,110.87,436.63z M89.08,436.4l-0.18-0.18
		c0.24-0.12,0.42-0.12,0.54,0L89.08,436.4z M87.27,508.95c-0.24,0-0.36-0.06-0.36-0.18c0-0.24,0.12-0.36,0.36-0.36
		c0.24,0,0.36,0.09,0.36,0.27C87.63,508.86,87.51,508.95,87.27,508.95z M100.68,443.64c0.3,0,0.45,0.18,0.45,0.54
		s-0.12,0.54-0.36,0.54c-0.36,0-0.54-0.18-0.54-0.54S100.38,443.64,100.68,443.64z M100.48,451.45c-0.12,0-0.18-0.12-0.18-0.36
		c0-0.24,0.09-0.36,0.27-0.36C100.75,450.72,100.72,450.96,100.48,451.45z M97.59,439.2c0.18,0,0.27,0.12,0.27,0.36
		c0,0.24-0.09,0.36-0.27,0.36c-0.18,0-0.27-0.12-0.27-0.36C97.31,439.32,97.4,439.2,97.59,439.2z M97.1,442.01
		c0.12,0,0.24,0.12,0.36,0.36c0.12,0.24,0.18,0.48,0.18,0.73c0,0.24,0,0.42,0,0.54c-0.48-0.12-0.79-0.42-0.91-0.91
		C96.74,442.25,96.86,442.01,97.1,442.01z M96.02,450.6c0.24,0,0.54,0.24,0.91,0.73c0.36,0.48,0.49,0.79,0.36,0.91
		c-0.12,0.12-0.36,0.06-0.73-0.18c-0.36-0.24-0.6-0.54-0.73-0.91C95.84,450.78,95.9,450.6,96.02,450.6z M96.13,459.51
		c-0.54,0.24-0.88,0.27-1,0.09c-0.12-0.18-0.06-0.39,0.18-0.63c0.48-0.36,1.03-0.54,1.63-0.54c0.24,0.12,0.3,0.24,0.18,0.36
		C97.01,459.03,96.68,459.27,96.13,459.51z M97.13,489.98c-0.12,0.24-0.3,0.36-0.54,0.36c-0.24,0-0.42-0.12-0.54-0.36
		c0-0.12,0.03-0.21,0.09-0.27c0.06-0.06,0.21-0.09,0.45-0.09c0.24,0,0.39,0.03,0.45,0.09C97.1,489.77,97.13,489.86,97.13,489.98z
		 M95.05,473.75c0.18,0,0.33,0.06,0.45,0.18c0.12,0.12,0.12,0.18,0,0.18c-0.12,0.24-0.27,0.36-0.45,0.36
		c-0.18,0-0.33-0.12-0.45-0.36c-0.12,0-0.12-0.06,0-0.18C94.71,473.81,94.87,473.75,95.05,473.75z M94.96,448.45
		c0-0.12,0.06-0.18,0.18-0.18c0.12,0,0.24,0.09,0.36,0.27c0.12,0.18,0.06,0.27-0.18,0.27C95.08,448.81,94.96,448.69,94.96,448.45z
		 M95.14,440.83c0.36,0,0.54,0.12,0.54,0.36c0,0.24-0.18,0.36-0.54,0.36s-0.54-0.12-0.54-0.36
		C94.59,440.95,94.77,440.83,95.14,440.83z M94.68,468.94c0.18,0,0.27,0.27,0.27,0.82s-0.06,0.82-0.18,0.82
		c-0.24,0-0.36-0.27-0.36-0.82S94.5,468.94,94.68,468.94z M90.35,507.13c-0.36,0-0.54-0.12-0.54-0.36c0-0.24,0.18-0.36,0.54-0.36
		s0.54,0.12,0.54,0.36C90.89,507.01,90.71,507.13,90.35,507.13z M92.23,502.72c-0.24-0.24-0.24-0.61,0-1.09l0.18-0.73l0.18,0.91
		c0.12,0.48,0.18,0.79,0.18,0.91C92.78,502.84,92.6,502.84,92.23,502.72z M93.25,437.08l-0.18,0.73l-0.18-0.91
		c-0.12-0.48-0.18-0.79-0.18-0.91c0-0.12,0.18-0.12,0.54,0C93.49,436.23,93.49,436.6,93.25,437.08z M93.69,477.11
		c0-0.61,0.61-0.43,1.81,0.54c0.49,0.48,0.73,0.91,0.73,1.27c-0.12,0.36-0.36,0.54-0.73,0.54c-0.24-0.12-0.57-0.45-1-1
		C94.08,477.92,93.81,477.47,93.69,477.11z M95.32,483.65c-0.24,0-0.39-0.03-0.45-0.09c-0.06-0.06-0.09-0.15-0.09-0.27
		c0-0.24,0.12-0.43,0.36-0.54c0.48-0.24,0.73-0.12,0.73,0.36C95.86,483.47,95.68,483.65,95.32,483.65z M95.8,496.33
		c0-0.43,0.24-0.64,0.73-0.64c0.36,0,0.58,0.06,0.63,0.18c0.06,0.12,0.09,0.24,0.09,0.36c-0.12,0.36-0.18,0.57-0.18,0.63
		c0,0.06-0.21,0.09-0.63,0.09C96.02,496.97,95.8,496.75,95.8,496.33z M96.04,502.5l0.36-0.18l0.18,0.18
		C96.35,502.62,96.17,502.62,96.04,502.5z M96.95,505.04c-0.24-0.12-0.3-0.3-0.18-0.54c0.36-0.48,0.54-0.36,0.54,0.36
		C97.31,505.1,97.19,505.16,96.95,505.04z M97.31,466.59c0-0.24,0.12-0.24,0.36,0c0.12,0.12,0.18,0.54,0.18,1.27v0.91l-0.36-1.09
		C97.38,467.19,97.31,466.83,97.31,466.59z M98.11,473.68c-0.24,0-0.42-0.12-0.54-0.36c-0.12-0.24,0-0.36,0.36-0.36
		s0.54,0.12,0.54,0.36C98.47,473.56,98.35,473.68,98.11,473.68z M99.35,500.91c-0.24,0-0.36-0.12-0.36-0.36
		c0-0.24,0.12-0.36,0.36-0.36c0.24,0,0.36,0.12,0.36,0.36C99.71,500.79,99.59,500.91,99.35,500.91z M100.56,491.89
		c-0.06,0.84-0.21,1.27-0.45,1.27c-0.36,0-0.66-0.67-0.91-2c0-0.36,0.09-0.61,0.27-0.73c0.18-0.12,0.39-0.12,0.63,0
		C100.47,490.56,100.63,491.04,100.56,491.89z M100.43,485.04c-0.24,0-0.39-0.03-0.45-0.09c-0.06-0.06-0.09-0.15-0.09-0.27
		c0.24-0.61,0.54-0.73,0.91-0.36C101.28,484.8,101.16,485.04,100.43,485.04z M100.8,456.58c-0.85,0.85-1.33,1.03-1.45,0.54
		c0-0.24,0.21-0.42,0.63-0.54c0.42-0.12,0.57-0.36,0.45-0.73c-0.12-0.12-0.12-0.3,0-0.54c0.12-0.24,0.24-0.42,0.36-0.54
		c0.12-0.12,0.24-0.18,0.36-0.18C101.89,455.07,101.77,455.74,100.8,456.58z M101.37,437.78c-0.12-0.18-0.06-0.39,0.18-0.63
		c0.48-0.36,1.03-0.54,1.63-0.54c0.24,0.12,0.3,0.24,0.18,0.36c-0.12,0.24-0.45,0.48-1,0.73
		C101.83,437.93,101.49,437.97,101.37,437.78z M103.34,473.64c-0.24,0.12-0.48,0.12-0.73,0c-0.24-0.12-0.3-0.27-0.18-0.45
		c0.12-0.18,0.3-0.27,0.54-0.27c0.24,0,0.39,0.09,0.45,0.27C103.49,473.36,103.46,473.52,103.34,473.64z M111.78,507.55
		c-0.36,0-0.54-0.12-0.54-0.36c0-0.24,0.18-0.36,0.54-0.36s0.54,0.12,0.54,0.36C112.33,507.43,112.14,507.55,111.78,507.55z
		 M131.38,508.34c-0.36,0-0.54-0.12-0.54-0.36c0-0.24,0.18-0.36,0.54-0.36s0.54,0.12,0.54,0.36
		C131.93,508.22,131.74,508.34,131.38,508.34z M137.98,506.24c-0.24-0.12-0.3-0.3-0.18-0.54c0.36-0.48,0.54-0.36,0.54,0.36
		C138.34,506.3,138.22,506.36,137.98,506.24z M140.38,502.11c-0.24,0-0.36-0.12-0.36-0.36c0-0.24,0.12-0.36,0.36-0.36
		c0.24,0,0.36,0.12,0.36,0.36C140.74,501.99,140.62,502.11,140.38,502.11z"/>
	<path class="st0" d="M676.7,491.53c-0.93,3.94-2.29,7.14-4.1,9.7c0.12,0.14,0.21,0.3,0.26,0.51c0,0.48-0.12,0.73-0.36,0.73
		c-0.12,0-0.24-0.12-0.36-0.36c-0.03-0.05-0.04-0.11-0.06-0.16c-3.7,4.73-9.2,6.99-17.02,7.16c-1.41,0.03-2.82,0.03-4.22-0.05
		c-8.96-0.51-14.19-5.03-14.44-13.94c-0.45-15.83-0.37-31.69-0.17-47.53c0.08-6.24,3.18-9.17,9.31-10.27
		c0.64-0.11,1.25-0.35,1.87-0.53c-0.05-0.18-0.1-0.36-0.14-0.54c-2.87,0-5.74,0-8.61,0c0.08,0.06,0.12,0.14,0.12,0.26
		c0,0.24-0.18,0.36-0.54,0.36s-0.54-0.12-0.54-0.36c0-0.11,0.04-0.2,0.12-0.26c-8.37,0-16.75,0-25.12,0
		c-0.03,0.23-0.06,0.47-0.08,0.7c1.17,0.24,2.36,0.43,3.52,0.72c4.07,1.02,6.61,3.55,7.32,7.73c0.27,1.56,0.46,3.15,0.46,4.72
		c0.03,9.3,0.02,18.59,0.02,27.89c0.11-0.08,0.23-0.13,0.39-0.13c0.24,0,0.39,0.09,0.45,0.27c0.06,0.18,0.03,0.33-0.09,0.45
		c-0.24,0.12-0.48,0.12-0.73,0c-0.01,0-0.01-0.01-0.02-0.02c0,5.92,0.02,11.84,0.01,17.76c0,1.4-0.15,2.82-0.36,4.2
		c-0.77,5.17-3.52,7.93-8.7,8.83c-0.77,0.13-1.54,0.29-2.31,0.43c0.03,0.23,0.06,0.46,0.09,0.69c21.71,0,43.43,0,65.58,0
		c0-7.4,0-14.71,0-22.02c-0.22-0.04-0.43-0.07-0.65-0.11C677.28,489.42,676.95,490.46,676.7,491.53z M616.46,437.26
		c-0.36,0-0.54-0.12-0.54-0.36c0-0.24,0.18-0.36,0.54-0.36s0.54,0.12,0.54,0.36C617,437.14,616.82,437.26,616.46,437.26z
		 M618.27,509.99c-0.24-0.12-0.3-0.3-0.18-0.54c0.36-0.48,0.54-0.36,0.54,0.36C618.63,510.05,618.51,510.11,618.27,509.99z
		 M633.97,469.33c-0.12,0.12-0.27,0.18-0.45,0.18c-0.18,0-0.33-0.06-0.45-0.18c-0.12-0.12-0.12-0.18,0-0.18
		c0.12-0.24,0.27-0.36,0.45-0.36c0.18,0,0.33,0.12,0.45,0.36C634.1,469.15,634.1,469.21,633.97,469.33z M632.43,483.75
		c0.54-0.24,0.88-0.27,1-0.09c0.12,0.18,0.06,0.39-0.18,0.63c-0.48,0.36-1.03,0.54-1.63,0.54c-0.24-0.12-0.3-0.24-0.18-0.36
		C631.55,484.24,631.89,484,632.43,483.75z M631.44,453.28c0.12-0.24,0.3-0.36,0.54-0.36c0.24,0,0.42,0.12,0.54,0.36
		c0,0.12-0.03,0.21-0.09,0.27c-0.06,0.06-0.21,0.09-0.45,0.09c-0.24,0-0.39-0.03-0.45-0.09
		C631.46,453.49,631.44,453.4,631.44,453.28z M633.25,494.45c0.24,0,0.36,0.12,0.36,0.36c0,0.12-0.06,0.18-0.18,0.18
		c-0.12,0-0.24-0.09-0.36-0.27C632.95,494.54,633.01,494.45,633.25,494.45z M633.25,459.61c0.24,0,0.39,0.03,0.45,0.09
		c0.06,0.06,0.09,0.15,0.09,0.27c0,0.24-0.12,0.43-0.36,0.54c-0.48,0.24-0.73,0.12-0.73-0.36
		C632.71,459.8,632.89,459.61,633.25,459.61z M632.76,446.93c0,0.43-0.24,0.64-0.73,0.64c-0.36,0-0.58-0.06-0.63-0.18
		c-0.06-0.12-0.09-0.24-0.09-0.36c0.12-0.36,0.18-0.57,0.18-0.63c0-0.06,0.21-0.09,0.63-0.09
		C632.55,446.3,632.76,446.51,632.76,446.93z M632.52,440.77l-0.36,0.18l-0.18-0.18C632.22,440.65,632.4,440.65,632.52,440.77z
		 M631.62,438.23c0.24,0.12,0.3,0.3,0.18,0.54c-0.36,0.48-0.54,0.36-0.54-0.36C631.25,438.17,631.37,438.11,631.62,438.23z
		 M631.25,476.68c0,0.24-0.12,0.24-0.36,0c-0.12-0.12-0.18-0.54-0.18-1.27v-0.91l0.36,1.09
		C631.19,476.08,631.25,476.44,631.25,476.68z M629.22,442.35c0.24,0,0.36,0.12,0.36,0.36c0,0.24-0.12,0.36-0.36,0.36
		c-0.24,0-0.36-0.12-0.36-0.36C628.86,442.48,628.98,442.35,629.22,442.35z M628,451.38c0.06-0.84,0.21-1.27,0.45-1.27
		c0.36,0,0.66,0.67,0.91,2c0,0.36-0.09,0.61-0.27,0.73c-0.18,0.12-0.39,0.12-0.63,0C628.1,452.71,627.94,452.22,628,451.38z
		 M628.13,458.22c0.24,0,0.39,0.03,0.45,0.09c0.06,0.06,0.09,0.15,0.09,0.27c-0.24,0.61-0.54,0.73-0.91,0.36
		C627.29,458.46,627.41,458.22,628.13,458.22z M628.27,492.18c0,0.24-0.09,0.36-0.27,0.36c-0.18,0-0.15-0.24,0.09-0.73
		C628.21,491.82,628.27,491.94,628.27,492.18z M624.87,464.85c-0.24,0-0.36-0.27-0.36-0.82s0.09-0.82,0.27-0.82
		c0.18,0,0.27,0.27,0.27,0.82S624.99,464.85,624.87,464.85z M626.14,470.08c-0.12,0.18-0.3,0.27-0.54,0.27
		c-0.24,0-0.39-0.09-0.45-0.27c-0.06-0.18-0.03-0.33,0.09-0.45c0.24-0.12,0.48-0.12,0.73,0C626.2,469.75,626.26,469.9,626.14,470.08
		z M624.56,440.91c-0.49-0.48-0.73-0.91-0.73-1.27c0.12-0.36,0.36-0.54,0.73-0.54c0.24,0.12,0.57,0.45,1,1
		c0.42,0.54,0.69,1,0.82,1.36C626.38,442.06,625.77,441.88,624.56,440.91z M627.89,499.62c-0.3,0-0.45-0.18-0.45-0.54
		s0.12-0.54,0.36-0.54c0.36,0,0.54,0.18,0.54,0.54S628.19,499.62,627.89,499.62z M630.09,464.09c-0.42,0.12-0.57,0.36-0.45,0.73
		c0.12,0.12,0.12,0.3,0,0.54c-0.12,0.24-0.24,0.42-0.36,0.54c-0.12,0.12-0.24,0.18-0.36,0.18c-0.73-0.48-0.6-1.15,0.36-1.99
		c0.85-0.85,1.33-1.03,1.45-0.54C630.72,463.79,630.51,463.97,630.09,464.09z M630.98,504.07c-0.18,0-0.27-0.12-0.27-0.36
		c0-0.24,0.09-0.36,0.27-0.36c0.18,0,0.27,0.12,0.27,0.36C631.25,503.95,631.16,504.07,630.98,504.07z M631.47,501.25
		c-0.12,0-0.24-0.12-0.36-0.36c-0.12-0.24-0.18-0.48-0.18-0.73c0-0.24,0-0.42,0-0.54c0.48,0.12,0.79,0.42,0.91,0.91
		C631.83,501.01,631.71,501.25,631.47,501.25z M632.55,492.66c-0.24,0-0.54-0.24-0.91-0.73c-0.36-0.48-0.49-0.79-0.36-0.91
		c0.12-0.12,0.36-0.06,0.73,0.18c0.36,0.24,0.6,0.54,0.73,0.91C632.73,492.48,632.67,492.66,632.55,492.66z M633.43,502.43
		c-0.36,0-0.54-0.12-0.54-0.36c0-0.24,0.18-0.36,0.54-0.36s0.54,0.12,0.54,0.36C633.97,502.31,633.79,502.43,633.43,502.43z
		 M633.88,474.32c-0.18,0-0.27-0.27-0.27-0.82s0.06-0.82,0.18-0.82c0.24,0,0.36,0.27,0.36,0.82S634.07,474.32,633.88,474.32z
		 M635.31,507.28c-0.24-0.24-0.24-0.61,0-1.09l0.18-0.73l0.18,0.91c0.12,0.48,0.18,0.79,0.18,0.91
		C635.86,507.39,635.68,507.39,635.31,507.28z M635.79,440.54c0-0.12,0.18-0.12,0.54,0c0.24,0.24,0.24,0.61,0,1.09l-0.18,0.73
		l-0.18-0.91C635.85,440.97,635.79,440.66,635.79,440.54z M639.12,507.05l0.36-0.18l0.18,0.18
		C639.43,507.17,639.25,507.17,639.12,507.05z M640.03,509.59c-0.24-0.12-0.3-0.3-0.18-0.54c0.36-0.48,0.54-0.36,0.54,0.36
		C640.39,509.65,640.27,509.71,640.03,509.59z M661.46,510c-0.24-0.12-0.3-0.3-0.18-0.54c0.36-0.48,0.54-0.36,0.54,0.36
		C661.82,510.06,661.71,510.12,661.46,510z M672.01,505.27c-0.18,0-0.27-0.12-0.27-0.36c0-0.24,0.09-0.36,0.27-0.36
		c0.18,0,0.27,0.12,0.27,0.36C672.28,505.15,672.19,505.27,672.01,505.27z M674.46,503.64c-0.36,0-0.54-0.12-0.54-0.36
		c0-0.24,0.18-0.36,0.54-0.36s0.54,0.12,0.54,0.36C675.01,503.52,674.82,503.64,674.46,503.64z M676.34,508.48
		c-0.24-0.24-0.24-0.61,0-1.09l0.18-0.73l0.18,0.91c0.12,0.48,0.18,0.79,0.18,0.91C676.89,508.6,676.71,508.6,676.34,508.48z"/>
	<path class="st0" d="M262.68,509.69c0-0.01,0-0.01,0-0.02c-0.21,0.07-0.4,0.14-0.62,0.22c-0.07,0.02-0.1,0.13-0.4,0.57
		c0.41,0,0.82,0,1.23,0c-0.01-0.02-0.02-0.02-0.03-0.04C262.74,510.18,262.68,509.94,262.68,509.69z"/>
	<path class="st0" d="M271.37,509.77c0.36,0,0.58,0.06,0.63,0.18c0.06,0.12,0.09,0.24,0.09,0.36c-0.02,0.05-0.03,0.1-0.05,0.14
		c4.57,0,9.16,0,13.89,0c-0.29-0.25-0.47-0.42-0.61-0.55c-0.04,0.31-0.15,0.47-0.34,0.47c-0.12,0-0.24-0.12-0.36-0.36
		c-0.09-0.19-0.14-0.37-0.16-0.56c-1.03-0.38-1.9-0.73-2.63-1.07c-0.05,0.24-0.19,0.36-0.43,0.36c-0.3,0-0.45-0.18-0.45-0.54
		c0-0.1,0.01-0.18,0.03-0.26c-2.48-1.41-2.8-3.08-2.97-7.8c-0.04-1.14-0.07-2.29-0.08-3.43c-0.03-2.97-0.05-5.95-0.07-8.92
		c-0.13,0.01-0.27-0.01-0.41-0.08c-0.24-0.12-0.3-0.27-0.18-0.45c0.12-0.18,0.3-0.27,0.54-0.27c0.02,0,0.02,0.01,0.04,0.01
		c-0.03-3.89-0.07-7.78-0.16-11.67c-0.08-3.8-1.47-7.01-4.84-9.18c-0.3-0.2-0.63-0.37-0.95-0.54c0.25,0.36,0.33,0.6,0.23,0.71
		c-0.12,0.12-0.36,0.06-0.73-0.18c-0.36-0.24-0.6-0.54-0.73-0.91c0-0.08,0-0.14,0.01-0.2c-4.32-1.84-9.98-2.04-14.81-0.69
		c-0.03,0.11-0.08,0.23-0.16,0.4c-0.1,0-0.16-0.11-0.17-0.3c-2.33,0.69-4.45,1.73-6.1,3.14c-1.1,0.94-2.01,2.11-3.01,3.18
		c-0.2-0.09-0.4-0.19-0.6-0.28c0-0.48,0-0.95,0-1.43c-0.06,0.08-0.14,0.15-0.25,0.2c-0.48,0.24-0.73,0.12-0.73-0.36
		c0-0.36,0.18-0.54,0.54-0.54c0.22,0,0.36,0.03,0.43,0.08c0-11.4,0-22.81,0-34.64c-5.47,0.7-10.54,1.35-15.62,2
		c-0.12,0.29-0.23,0.59-0.35,0.88c2.59,0.22,4.29,1.01,5.43,2.15c0.1-0.06,0.22-0.12,0.38-0.16c0.42-0.12,0.57-0.36,0.45-0.73
		c-0.12-0.12-0.12-0.3,0-0.54c0.12-0.24,0.24-0.42,0.36-0.54c0.12-0.12,0.24-0.18,0.36-0.18c0.73,0.48,0.6,1.15-0.36,1.99
		c-0.3,0.3-0.55,0.51-0.76,0.64c1.73,2.16,1.84,5.36,1.84,8.58c0.03,10.14,0.03,20.29,0.03,30.43c0.17-0.03,0.34-0.03,0.51,0.05
		c0.24,0.12,0.3,0.27,0.18,0.45c-0.12,0.18-0.3,0.27-0.54,0.27c-0.06,0-0.1-0.02-0.15-0.03c0,5.55-0.01,11.1-0.02,16.64
		c-0.01,2.72-0.19,5.46-0.54,8.15c-0.39,3.01-2.17,4.92-5.24,5.5c-0.3,0.06-0.59,0.14-0.88,0.24c-0.02,0.08-0.03,0.13-0.03,0.16
		c0,0.06-0.21,0.09-0.63,0.09c-0.02,0-0.03-0.01-0.05-0.01c-0.19,0.06-0.37,0.13-0.56,0.19c0.05,0.15,0.11,0.3,0.16,0.46
		c5.18,0,10.36,0,15.54,0c0.07-0.02,0.16-0.03,0.26-0.03s0.19,0.01,0.26,0.03c2.52,0,5.04,0,7.56,0c-0.27-0.57-0.58-0.8-0.92-0.93
		c-0.12,0.35-0.18,0.56-0.18,0.62c0,0.06-0.21,0.09-0.63,0.09c-0.42,0-0.63-0.21-0.63-0.63c0-0.24,0.09-0.41,0.24-0.51
		c-4.42-1.64-5.26-3.04-5.35-8.39c-0.1-5.89-0.26-11.8,0.09-17.67c-0.17-0.02-0.26-0.28-0.26-0.81c0-0.54,0.06-0.82,0.18-0.82
		c0.09,0,0.15,0.05,0.21,0.12c0.3-3.15,1.01-6.35,2.17-9.26c2.27-5.64,7.62-8,13.67-6.7c4.77,1.02,7.52,4.78,7.62,10.93
		c0.06,3.78,0.1,7.56,0.1,11.34c0.05-0.01,0.1-0.03,0.16-0.03c0.18,0,0.33,0.06,0.45,0.18c0.12,0.12,0.12,0.18,0,0.18
		c-0.12,0.24-0.27,0.36-0.45,0.36c-0.06,0-0.11-0.03-0.16-0.06c0,0.92-0.02,1.84-0.02,2.76c0.19,0.13,0.4,0.28,0.63,0.47
		c0.49,0.48,0.73,0.91,0.73,1.27c-0.12,0.36-0.36,0.54-0.73,0.54c-0.17-0.09-0.39-0.28-0.64-0.57c-0.01,1.4-0.01,2.81-0.03,4.21
		c0.05-0.15,0.14-0.27,0.31-0.36c0.48-0.24,0.73-0.12,0.73,0.36c0,0.36-0.18,0.54-0.54,0.54c-0.24,0-0.39-0.03-0.45-0.09
		c-0.03-0.03-0.02-0.08-0.04-0.12c-0.01,0.66,0,1.32-0.01,1.98c-0.09,6.48-0.97,7.97-6.39,9.96c0.15,0.15,0.26,0.35,0.32,0.59
		c0,0.17-0.02,0.3-0.05,0.41c2.38,0,4.75,0,7.11,0c0-0.02-0.01-0.03-0.01-0.05C270.64,509.98,270.89,509.77,271.37,509.77z
		 M275.64,498.4c0.48,0.48,0.36,0.73-0.36,0.73c-0.24,0-0.39-0.03-0.45-0.09c-0.06-0.06-0.09-0.15-0.09-0.27
		C274.97,498.15,275.28,498.03,275.64,498.4z M274.32,504.51c0.18-0.12,0.39-0.12,0.63,0c0.36,0.12,0.52,0.6,0.45,1.45
		c-0.06,0.84-0.21,1.27-0.45,1.27c-0.36,0-0.66-0.67-0.91-2C274.04,504.88,274.14,504.63,274.32,504.51z M272.95,487.76
		c-0.24,0-0.42-0.12-0.54-0.36c-0.12-0.24,0-0.36,0.36-0.36s0.54,0.12,0.54,0.36C273.31,487.64,273.19,487.76,272.95,487.76z
		 M272.59,472.15c0.24,0,0.42,0.12,0.54,0.36c0.12,0.24,0,0.36-0.36,0.36s-0.54-0.12-0.54-0.36
		C272.22,472.27,272.34,472.15,272.59,472.15z M272.52,480.66c0.12,0.12,0.18,0.54,0.18,1.27v0.91l-0.36-1.09
		c-0.12-0.48-0.18-0.85-0.18-1.09C272.16,480.42,272.28,480.42,272.52,480.66z M244.93,455.67c0,0.43-0.24,0.64-0.73,0.64
		c-0.36,0-0.58-0.06-0.63-0.18c-0.06-0.12-0.09-0.24-0.09-0.36c0.12-0.36,0.18-0.57,0.18-0.63c0-0.06,0.21-0.09,0.63-0.09
		C244.71,455.04,244.93,455.25,244.93,455.67z M243.69,462.29c-0.06-0.06-0.09-0.15-0.09-0.27c0.12-0.24,0.3-0.36,0.54-0.36
		c0.24,0,0.42,0.12,0.54,0.36c0,0.12-0.03,0.21-0.09,0.27c-0.06,0.06-0.21,0.09-0.45,0.09C243.9,462.38,243.75,462.35,243.69,462.29
		z M244.6,492.49c0.54-0.24,0.88-0.27,1-0.09c0.12,0.18,0.06,0.39-0.18,0.63c-0.48,0.36-1.03,0.54-1.63,0.54
		c-0.24-0.12-0.3-0.24-0.18-0.36C243.72,492.97,244.05,492.73,244.6,492.49z M243.42,447.15c0-0.24,0.12-0.3,0.36-0.18
		c0.24,0.12,0.3,0.3,0.18,0.54C243.6,447.99,243.42,447.87,243.42,447.15z M244.14,449.5c0.24-0.12,0.42-0.12,0.54,0l-0.36,0.18
		L244.14,449.5z M243.05,435.9c0.24-0.24,0.54-0.36,0.91-0.36l0.36,0.18l0.36,0.18c-0.12,0.36-0.39,0.61-0.82,0.73
		c-0.43,0.12-0.7,0.12-0.82,0C242.81,436.38,242.81,436.14,243.05,435.9z M240.05,508.36c-0.3,0-0.45-0.18-0.45-0.54
		s0.12-0.54,0.36-0.54c0.36,0,0.54,0.18,0.54,0.54S240.35,508.36,240.05,508.36z M240.26,500.55c0.12,0,0.18,0.12,0.18,0.36
		c0,0.24-0.09,0.36-0.27,0.36C239.98,501.28,240.01,501.04,240.26,500.55z M239.93,467.68c-0.48-0.48-0.36-0.73,0.36-0.73
		c0.24,0,0.39,0.03,0.45,0.09c0.06,0.06,0.09,0.15,0.09,0.27C240.6,467.93,240.3,468.04,239.93,467.68z M241.26,461.56
		c-0.18,0.12-0.39,0.12-0.63,0c-0.36-0.12-0.52-0.6-0.45-1.45c0.06-0.84,0.21-1.27,0.45-1.27c0.36,0,0.66,0.67,0.91,2
		C241.53,461.2,241.44,461.45,241.26,461.56z M241.38,451.82c-0.24,0-0.36-0.12-0.36-0.36c0-0.24,0.12-0.36,0.36-0.36
		c0.24,0,0.36,0.12,0.36,0.36C241.74,451.7,241.62,451.82,241.38,451.82z M241.65,442.16c-0.12-0.06-0.12-0.15,0-0.27
		c0-0.24,0.15-0.36,0.45-0.36c0.3,0,0.51,0.12,0.63,0.36c0,0.12-0.06,0.21-0.18,0.27c-0.12,0.06-0.27,0.09-0.45,0.09
		S241.77,442.22,241.65,442.16z M242.26,478.68c0-0.24,0.12-0.36,0.36-0.36c0.24,0,0.42,0.12,0.54,0.36c0.12,0.24,0,0.36-0.36,0.36
		S242.26,478.93,242.26,478.68z M242.87,484.15v-0.91l0.36,1.09c0.12,0.48,0.18,0.85,0.18,1.09c0,0.24-0.12,0.24-0.36,0
		C242.93,485.3,242.87,484.87,242.87,484.15z M243.63,509.99c-0.12,0-0.24-0.12-0.36-0.36c-0.12-0.24-0.18-0.48-0.18-0.73
		c0-0.24,0-0.42,0-0.54c0.48,0.12,0.79,0.42,0.91,0.91C243.99,509.75,243.87,509.99,243.63,509.99z M244.71,501.4
		c-0.24,0-0.54-0.24-0.91-0.73c-0.36-0.48-0.49-0.79-0.36-0.91c0.12-0.12,0.36-0.06,0.73,0.18c0.36,0.24,0.6,0.54,0.73,0.91
		C244.89,501.22,244.83,501.4,244.71,501.4z M245.59,503.73c-0.12,0-0.24-0.09-0.36-0.27c-0.12-0.18-0.06-0.27,0.18-0.27
		c0.24,0,0.36,0.12,0.36,0.36C245.78,503.67,245.71,503.73,245.59,503.73z M246.14,478.07c-0.12,0.12-0.27,0.18-0.45,0.18
		c-0.18,0-0.33-0.06-0.45-0.18c-0.12-0.12-0.12-0.18,0-0.18c0.12-0.24,0.27-0.36,0.45-0.36c0.18,0,0.33,0.12,0.45,0.36
		C246.26,477.89,246.26,477.95,246.14,478.07z M245.23,474.35c-0.49-0.48-0.73-0.91-0.73-1.27c0.12-0.36,0.36-0.54,0.73-0.54
		c0.24,0.12,0.57,0.45,1,1c0.42,0.54,0.69,1,0.82,1.36C247.04,475.5,246.44,475.32,245.23,474.35z M270.98,503.79
		c0.06-0.06,0.21-0.09,0.45-0.09c0.24,0,0.39,0.03,0.45,0.09c0.06,0.06,0.09,0.15,0.09,0.27c-0.12,0.24-0.3,0.36-0.54,0.36
		c-0.24,0-0.42-0.12-0.54-0.36C270.89,503.94,270.92,503.85,270.98,503.79z"/>
	<path class="st0" d="M366.1,497.7c0-0.44,0-0.88-0.01-1.32c-0.06-7.04-0.03-14.09-0.2-21.13c-0.14-5.63-3.15-9.29-8.52-10.72
		c-8.25-2.2-15.91-1.47-22.04,5.35c-0.26,0.29-0.61,0.49-1.37,1.1c0-5.19,0-10.28,0-15.35c-0.05-0.06-0.08-0.13-0.08-0.24
		c0-0.08,0.03-0.12,0.08-0.15c0-2.25,0-4.51,0-6.75c-0.29-0.02-0.44-0.14-0.44-0.35c0-0.22,0.15-0.33,0.44-0.35
		c0-2.84,0-5.69,0-8.54c-0.29-0.02-0.44-0.14-0.44-0.35c0-0.22,0.15-0.33,0.44-0.35c0-1.58,0-3.15,0-4.73
		c-5.42,0.7-10.48,1.35-15.54,2.01c6.31,3.03,7.12,4.2,7.33,11.1c0.02,0.53,0.03,1.06,0.03,1.59c0.01,15.94,0.03,31.88,0,47.83
		c0,2.37-0.17,4.75-0.44,7.11c-0.37,3.23-2.11,5.33-5.42,5.97c-0.68,0.13-1.34,0.4-2.01,0.61c0.04,0.19,0.08,0.38,0.12,0.57
		c7.82,0,15.63,0,23.45,0c0.05-0.18,0.1-0.35,0.15-0.53c-0.35-0.18-0.69-0.4-1.06-0.52c-5.23-1.74-6.35-3.09-6.43-8.54
		c-0.05-3.46-0.16-6.94-0.15-10.4c-0.09-0.02-0.16-0.04-0.19-0.07c-0.06-0.06-0.09-0.15-0.09-0.27c0-0.21,0.11-0.36,0.29-0.48
		c0.01-1.21,0.04-2.41,0.09-3.62c-0.18-0.17-0.4-0.41-0.64-0.73c-0.42-0.54-0.69-1-0.82-1.36c0-0.56,0.52-0.44,1.54,0.34
		c0.04-0.72,0.09-1.43,0.16-2.15c0.04-0.4,0.09-0.79,0.14-1.19c-0.01,0-0.01,0.01-0.02,0.01c-0.12,0.24-0.27,0.36-0.45,0.36
		c-0.18,0-0.33-0.12-0.45-0.36c-0.12,0-0.12-0.06,0-0.18c0.12-0.12,0.27-0.18,0.45-0.18c0.18,0,0.33,0.06,0.45,0.18
		c0.02,0.02,0.02,0.03,0.03,0.05c0.32-2.44,0.94-4.89,1.8-7.23c0-0.05-0.02-0.12-0.02-0.17c0-0.15,0.05-0.19,0.14-0.16
		c0.37-0.99,0.78-1.97,1.24-2.9c0.95-1.97,2.56-3.38,4.52-4.23c-0.01-0.07-0.01-0.13-0.01-0.21c0-0.54,0.09-0.82,0.27-0.82
		c0.18,0,0.27,0.27,0.27,0.81c1.6-0.6,3.41-0.83,5.27-0.72c0.1-0.03,0.19-0.03,0.26,0.01c0.68,0.05,1.37,0.15,2.05,0.3
		c4.24,0.93,6.95,3.99,7.39,9.13c0.37,4.29,0.32,8.62,0.3,12.93c-0.02,2.93-0.04,5.87-0.13,8.8c0,0.02,0.02,0.03,0.02,0.05
		c-0.01,0.01-0.01,0.01-0.02,0.02c-0.05,1.91-0.14,3.81-0.27,5.71c0.17,0.03,0.28,0.08,0.32,0.16c0.06,0.12,0.09,0.24,0.09,0.36
		c-0.12,0.36-0.18,0.57-0.18,0.63c0,0.04-0.11,0.07-0.33,0.08c-0.34,2.93-1.56,4.47-4.01,5.43c0.03,0.16,0.05,0.28,0.05,0.34
		c0,0.12-0.18,0.12-0.54,0c-0.04-0.04-0.06-0.08-0.08-0.12c-0.36,0.12-0.73,0.24-1.14,0.34c-0.56,0.14-1.09,0.41-1.63,0.61
		c0.05,0.11,0.11,0.23,0.16,0.34c7.83,0,15.65,0,23.48,0c0.21-0.25,0.42-0.5,0.63-0.75C365.94,509.14,366.14,503.35,366.1,497.7z
		 M335.33,509.24l0.18,0.18c-0.24,0.12-0.42,0.12-0.54,0L335.33,509.24z M329.09,461.99c0.24,0,0.39,0.03,0.45,0.09
		c0.06,0.06,0.09,0.15,0.09,0.27c0,0.24-0.12,0.43-0.36,0.54c-0.48,0.24-0.73,0.12-0.73-0.36
		C328.54,462.17,328.73,461.99,329.09,461.99z M328.6,449.31c0,0.43-0.24,0.64-0.73,0.64c-0.36,0-0.58-0.06-0.63-0.18
		c-0.06-0.12-0.09-0.24-0.09-0.36c0.12-0.36,0.18-0.57,0.18-0.63c0-0.06,0.21-0.09,0.63-0.09
		C328.39,448.67,328.6,448.88,328.6,449.31z M329.09,486.67c-0.48,0.36-1.03,0.54-1.63,0.54c-0.24-0.12-0.3-0.24-0.18-0.36
		c0.12-0.24,0.45-0.48,1-0.73c0.54-0.24,0.88-0.27,1-0.09C329.39,486.22,329.33,486.43,329.09,486.67z M329.45,497.19
		c0,0.12-0.06,0.18-0.18,0.18c-0.12,0-0.24-0.09-0.36-0.27c-0.12-0.18-0.06-0.27,0.18-0.27
		C329.33,496.83,329.45,496.95,329.45,497.19z M327.37,455.93c-0.06-0.06-0.09-0.15-0.09-0.27c0.12-0.24,0.3-0.36,0.54-0.36
		c0.24,0,0.42,0.12,0.54,0.36c0,0.12-0.03,0.21-0.09,0.27c-0.06,0.06-0.21,0.09-0.45,0.09
		C327.58,456.02,327.43,455.99,327.37,455.93z M328.36,443.14l-0.36,0.18l-0.18-0.18C328.06,443.02,328.24,443.02,328.36,443.14z
		 M327.46,440.6c0.24,0.12,0.3,0.3,0.18,0.54c-0.36,0.48-0.54,0.36-0.54-0.36C327.09,440.54,327.21,440.48,327.46,440.6z
		 M327.09,479.05c0,0.24-0.12,0.24-0.36,0c-0.12-0.12-0.18-0.54-0.18-1.27v-0.91l0.36,1.09
		C327.03,478.45,327.09,478.81,327.09,479.05z M325.78,435.88c-0.18,0-0.33-0.03-0.45-0.09c-0.12-0.06-0.12-0.15,0-0.27
		c0-0.24,0.15-0.36,0.45-0.36c0.3,0,0.51,0.12,0.63,0.36c0,0.12-0.06,0.21-0.18,0.27C326.11,435.86,325.96,435.88,325.78,435.88z
		 M325.94,472.32c0-0.24,0.12-0.36,0.36-0.36c0.24,0,0.42,0.12,0.54,0.36c0.12,0.24,0,0.36-0.36,0.36S325.94,472.56,325.94,472.32z
		 M326.82,506.44c-0.18,0-0.27-0.12-0.27-0.36c0-0.24,0.09-0.36,0.27-0.36c0.18,0,0.27,0.12,0.27,0.36
		C327.09,506.32,327,506.44,326.82,506.44z M327.3,503.63c-0.12,0-0.24-0.12-0.36-0.36c-0.12-0.24-0.18-0.48-0.18-0.73
		c0-0.24,0-0.42,0-0.54c0.48,0.12,0.79,0.42,0.91,0.91C327.67,503.39,327.55,503.63,327.3,503.63z M328.39,495.03
		c-0.24,0-0.54-0.24-0.91-0.73c-0.36-0.48-0.49-0.79-0.36-0.91c0.12-0.12,0.36-0.06,0.73,0.18c0.36,0.24,0.6,0.54,0.73,0.91
		C328.57,494.85,328.51,495.03,328.39,495.03z M329.27,504.81c-0.36,0-0.54-0.12-0.54-0.36c0-0.24,0.18-0.36,0.54-0.36
		s0.54,0.12,0.54,0.36C329.81,504.69,329.63,504.81,329.27,504.81z M329.81,471.71c-0.12,0.12-0.27,0.18-0.45,0.18
		c-0.18,0-0.33-0.06-0.45-0.18c-0.12-0.12-0.12-0.18,0-0.18c0.12-0.24,0.27-0.36,0.45-0.36c0.18,0,0.33,0.12,0.45,0.36
		C329.94,471.52,329.94,471.58,329.81,471.71z M328.91,467.99c-0.49-0.48-0.73-0.91-0.73-1.27c0.12-0.36,0.36-0.54,0.73-0.54
		c0.24,0.12,0.57,0.45,1,1c0.42,0.54,0.69,1,0.82,1.36C330.72,469.14,330.12,468.96,328.91,467.99z M331.15,509.65
		c-0.24-0.24-0.24-0.61,0-1.09l0.18-0.73l0.18,0.91c0.12,0.48,0.18,0.79,0.18,0.91C331.7,509.77,331.52,509.77,331.15,509.65z
		 M331.99,477.11c-0.18,0-0.27-0.27-0.27-0.82s0.06-0.82,0.18-0.82c0.24,0,0.36,0.27,0.36,0.82S332.17,477.11,331.99,477.11z
		 M332.17,444l-0.18,0.73l-0.18-0.91c-0.12-0.48-0.18-0.79-0.18-0.91c0-0.12,0.18-0.12,0.54,0
		C332.41,443.16,332.41,443.52,332.17,444z M333.1,435.38c-0.12-0.3-0.12-0.51,0-0.63c0.48-0.48,0.73-0.3,0.73,0.54
		c0,0.36-0.09,0.54-0.27,0.54C333.38,435.83,333.22,435.68,333.1,435.38z M357.81,465.31c-0.12,0.24-0.45,0.48-1,0.73
		c-0.54,0.24-0.88,0.27-1,0.09c-0.12-0.18-0.06-0.39,0.18-0.63c0.48-0.36,1.03-0.54,1.63-0.54
		C357.87,465.06,357.93,465.19,357.81,465.31z M356.72,509.02l0.36-0.18l0.18,0.18C357.03,509.14,356.84,509.14,356.72,509.02z
		 M357.99,473.11c0-0.24,0.12-0.24,0.36,0c0.12,0.12,0.18,0.54,0.18,1.27v0.91l-0.36-1.09
		C358.06,473.71,357.99,473.35,357.99,473.11z M358.79,480.2c-0.24,0-0.42-0.12-0.54-0.36c-0.12-0.24,0-0.36,0.36-0.36
		s0.54,0.12,0.54,0.36C359.15,480.08,359.03,480.2,358.79,480.2z M360.03,507.43c-0.24,0-0.36-0.12-0.36-0.36
		c0-0.24,0.12-0.36,0.36-0.36c0.24,0,0.36,0.12,0.36,0.36C360.39,507.31,360.27,507.43,360.03,507.43z M361.24,498.41
		c-0.06,0.84-0.21,1.27-0.45,1.27c-0.36,0-0.66-0.67-0.91-2c0-0.36,0.09-0.61,0.27-0.73c0.18-0.12,0.39-0.12,0.63,0
		C361.15,497.08,361.3,497.56,361.24,498.41z M361.11,491.56c-0.24,0-0.39-0.03-0.45-0.09c-0.06-0.06-0.09-0.15-0.09-0.27
		c0.24-0.61,0.54-0.73,0.91-0.36C361.96,491.32,361.84,491.56,361.11,491.56z M364.02,480.16c-0.24,0.12-0.48,0.12-0.73,0
		c-0.24-0.12-0.3-0.27-0.18-0.45c0.12-0.18,0.3-0.27,0.54-0.27c0.24,0,0.39,0.09,0.45,0.27
		C364.17,479.89,364.14,480.04,364.02,480.16z M365.17,472.46c-0.12,0.18-0.3,0.27-0.54,0.27c-0.24,0-0.39-0.09-0.45-0.27
		c-0.06-0.18-0.03-0.33,0.09-0.45c0.24-0.12,0.48-0.12,0.73,0C365.23,472.13,365.29,472.28,365.17,472.46z"/>
	<path class="st0" d="M481.96,498.39c-0.02-0.53-0.03-1.06-0.03-1.59c-0.02-9.78-0.03-19.55-0.06-29.33c0-1.01-0.1-2.03-0.14-2.89
		c-5.42,0-10.54,0-15.65,0c0.4,0.7,0.87,0.9,1.35,1.05c4.69,1.36,6.09,2.72,6.15,7.59c0.11,8.62,0.06,17.26-0.36,25.87
		c-0.31,6.27-5.54,10.37-12.2,10.3c-6.23-0.07-9.8-3.31-10.04-10.11c-0.16-4.54-0.23-9.08-0.27-13.62
		c-0.16-0.17-0.35-0.38-0.56-0.65c-0.42-0.54-0.69-1-0.82-1.36c0-0.52,0.45-0.46,1.35,0.19c-0.01-0.94-0.01-1.89-0.02-2.83
		c-0.17-0.01-0.32-0.12-0.43-0.35c-0.12,0-0.12-0.06,0-0.18c0.11-0.11,0.26-0.17,0.43-0.18c-0.02-4.24-0.04-8.48-0.08-12.71
		c-0.01-1.03,0-2.05,0-3.07c-5.51,0-10.67,0-15.83,0c0.7,0.85,1.48,1.13,2.27,1.36c3.17,0.89,4.92,2.93,5.14,6.24
		c0.1,1.49,0.23,2.99,0.24,4.48c0.04,7.49-0.02,14.97,0.07,22.46c0.08,6.47,3.4,10.64,9.7,12.06c3.07,0.69,6.04,0.82,8.89,0.38
		l0.06-0.25l0.05,0.24c3.69-0.59,7.18-2.13,10.44-4.65c0.59-0.45,1.2-0.88,1.97-1.45c0.36,2.27,0.66,4.22,0.99,6.35
		c5.11-0.7,9.95-1.36,14.79-2.02C483.02,506.58,482.24,505.44,481.96,498.39z M450.32,475.49c0.18,0,0.27,0.27,0.27,0.82
		s-0.06,0.82-0.18,0.82c-0.24,0-0.36-0.27-0.36-0.82S450.14,475.49,450.32,475.49z M442.66,471.94c0-0.24,0.12-0.36,0.36-0.36
		c0.24,0,0.42,0.12,0.54,0.36c0.12,0.24,0,0.36-0.36,0.36S442.66,472.18,442.66,471.94z M443.45,478.67
		c-0.12-0.12-0.18-0.54-0.18-1.27v-0.91l0.36,1.09c0.12,0.48,0.18,0.85,0.18,1.09C443.81,478.92,443.69,478.92,443.45,478.67z
		 M443.99,486.47c0.12-0.24,0.45-0.48,1-0.73c0.54-0.24,0.88-0.27,1-0.09c0.12,0.18,0.06,0.39-0.18,0.63
		c-0.48,0.36-1.03,0.54-1.63,0.54C443.93,486.72,443.87,486.59,443.99,486.47z M445.33,492.78c-0.24,0-0.39-0.03-0.45-0.09
		c-0.06-0.06-0.09-0.15-0.09-0.27c0.24-0.61,0.54-0.73,0.91-0.36C446.18,492.54,446.06,492.78,445.33,492.78z M445.01,500.89
		c-0.36,0-0.66-0.67-0.91-2c0-0.36,0.09-0.61,0.27-0.73c0.18-0.12,0.39-0.12,0.63,0c0.36,0.12,0.52,0.6,0.45,1.45
		C445.4,500.47,445.25,500.89,445.01,500.89z M445.69,507.33c-0.24,0-0.36-0.12-0.36-0.36c0-0.36,0.12-0.54,0.36-0.54
		c0.24,0,0.36,0.15,0.36,0.45C446.05,507.18,445.93,507.33,445.69,507.33z M445.62,471.33c-0.12-0.12-0.12-0.18,0-0.18
		c0.12-0.24,0.27-0.36,0.45-0.36c0.18,0,0.33,0.12,0.45,0.36c0.12,0,0.12,0.06,0,0.18c-0.12,0.12-0.27,0.18-0.45,0.18
		C445.9,471.51,445.75,471.45,445.62,471.33z M446.44,476.32c-0.18,0-0.27-0.27-0.27-0.82s0.06-0.82,0.18-0.82
		c0.24,0,0.36,0.27,0.36,0.82S446.62,476.32,446.44,476.32z M445.62,467.61c-0.49-0.48-0.73-0.91-0.73-1.27
		c0.12-0.36,0.36-0.54,0.73-0.54c0.24,0.12,0.57,0.45,1,1c0.42,0.54,0.69,1,0.82,1.36C447.44,468.76,446.83,468.58,445.62,467.61z
		 M449.57,504.79c-0.42,0-0.63-0.18-0.63-0.54c0-0.48,0.21-0.73,0.63-0.73c0.42,0,0.63,0.21,0.63,0.63
		C450.2,504.58,449.99,504.79,449.57,504.79z M456.62,509.84c-0.18,0-0.27-0.12-0.27-0.36c0-0.24,0.09-0.36,0.27-0.36
		c0.18,0,0.27,0.12,0.27,0.36C456.89,509.72,456.8,509.84,456.62,509.84z M481.37,474.71c-0.12,0.12-0.27,0.18-0.45,0.18
		c-0.18,0-0.33-0.06-0.45-0.18c-0.12-0.12-0.12-0.18,0-0.18c0.12-0.24,0.27-0.36,0.45-0.36c0.18,0,0.33,0.12,0.45,0.36
		C481.49,474.53,481.49,474.59,481.37,474.71z M481.01,500.19c0,0.12-0.06,0.18-0.18,0.18c-0.12,0-0.24-0.09-0.36-0.27
		c-0.12-0.18-0.06-0.27,0.18-0.27C480.89,499.83,481.01,499.95,481.01,500.19z M480.64,464.99c0.24,0,0.39,0.03,0.45,0.09
		c0.06,0.06,0.09,0.15,0.09,0.27c0,0.24-0.12,0.43-0.36,0.54c-0.48,0.24-0.73,0.12-0.73-0.36
		C480.1,465.17,480.28,464.99,480.64,464.99z M478.83,489.85c0.12-0.24,0.45-0.48,1-0.73c0.54-0.24,0.88-0.27,1-0.09
		c0.12,0.18,0.06,0.39-0.18,0.63c-0.48,0.36-1.03,0.54-1.63,0.54C478.77,490.1,478.71,489.97,478.83,489.85z M478.65,482.05
		c0,0.24-0.12,0.24-0.36,0c-0.12-0.12-0.18-0.54-0.18-1.27v-0.91l0.36,1.09C478.59,481.45,478.65,481.81,478.65,482.05z
		 M475.49,497.19c0.12,0,0.18,0.12,0.18,0.36c0,0.24-0.09,0.36-0.27,0.36C475.22,497.92,475.24,497.68,475.49,497.19z M475.28,505
		c-0.3,0-0.45-0.18-0.45-0.54s0.12-0.54,0.36-0.54c0.36,0,0.54,0.18,0.54,0.54S475.58,505,475.28,505z M477.48,469.47
		c-0.42,0.12-0.57,0.36-0.45,0.73c0.12,0.12,0.12,0.3,0,0.54c-0.12,0.24-0.24,0.42-0.36,0.54c-0.12,0.12-0.24,0.18-0.36,0.18
		c-0.73-0.48-0.6-1.15,0.36-1.99c0.85-0.85,1.33-1.03,1.45-0.54C478.12,469.16,477.91,469.34,477.48,469.47z M478.38,509.44
		c-0.18,0-0.27-0.12-0.27-0.36c0-0.24,0.09-0.36,0.27-0.36c0.18,0,0.27,0.12,0.27,0.36C478.65,509.32,478.56,509.44,478.38,509.44z
		 M478.86,506.63c-0.12,0-0.24-0.12-0.36-0.36c-0.12-0.24-0.18-0.48-0.18-0.73c0-0.24,0-0.42,0-0.54c0.48,0.12,0.79,0.42,0.91,0.91
		C479.22,506.39,479.1,506.63,478.86,506.63z M479.94,498.04c-0.24,0-0.54-0.24-0.91-0.73c-0.36-0.48-0.49-0.79-0.36-0.91
		c0.12-0.12,0.36-0.06,0.73,0.18c0.36,0.24,0.6,0.54,0.73,0.91C480.12,497.86,480.06,498.04,479.94,498.04z M480.83,507.81
		c-0.36,0-0.54-0.12-0.54-0.36c0-0.24,0.18-0.36,0.54-0.36s0.54,0.12,0.54,0.36C481.37,507.69,481.19,507.81,480.83,507.81z
		 M481.28,479.7c-0.18,0-0.27-0.27-0.27-0.82s0.06-0.82,0.18-0.82c0.24,0,0.36,0.27,0.36,0.82S481.46,479.7,481.28,479.7z"/>
	<path class="st0" d="M404.46,463.57c-0.97,0-1.95-0.1-2.9,0.02c-7.29,0.86-13.07,3.98-17.26,9.14c0.1,0.01,0.19,0.02,0.29,0.07
		c0.24,0.12,0.3,0.27,0.18,0.45c-0.12,0.18-0.3,0.27-0.54,0.27c-0.19,0-0.31-0.07-0.39-0.19c-1.2,1.57-2.28,3.31-3.2,5.24
		c-0.21,0.44-0.4,0.88-0.58,1.32c0.35,0,0.52,0.12,0.52,0.36c0,0.24-0.12,0.36-0.36,0.36c-0.15,0-0.27-0.07-0.38-0.16
		c-2.37,6.22-1.64,12.33,1.55,18.02c-0.03-0.12-0.05-0.24-0.08-0.38c0-0.36,0.09-0.61,0.27-0.73c0.18-0.12,0.39-0.12,0.63,0
		c0.36,0.12,0.52,0.6,0.45,1.45c-0.05,0.7-0.17,1.1-0.34,1.22c0.27,0.42,0.55,0.83,0.85,1.25c2.71,3.77,6.45,6.59,10.65,8.36
		c0.03-0.09,0.06-0.19,0.12-0.29l0.18-0.73l0.18,0.91c0.03,0.13,0.06,0.24,0.08,0.34c6.73,2.67,14.54,2.65,21.17-0.51
		c0.03-0.13,0.07-0.26,0.15-0.41l0.18-0.73l0.18,0.88c0.56-0.29,1.12-0.59,1.67-0.92c7.08-4.33,11.65-10.5,12.15-19.01
		C430.68,475.37,418.98,463.63,404.46,463.57z M382.54,491.98c-0.24,0-0.39-0.03-0.45-0.09c-0.06-0.06-0.09-0.15-0.09-0.27
		c0.24-0.61,0.54-0.73,0.91-0.36C383.39,491.73,383.27,491.98,382.54,491.98z M420.51,497.03c0.06,0.06,0.09,0.15,0.09,0.27
		c-0.12,0.24-0.3,0.36-0.54,0.36c-0.24,0-0.42-0.12-0.54-0.36c0-0.12,0.03-0.21,0.09-0.27c0.06-0.06,0.21-0.09,0.45-0.09
		C420.3,496.94,420.45,496.97,420.51,497.03z M391.7,466.97c0.24,0.12,0.57,0.45,1,1c0.42,0.54,0.69,1,0.82,1.36
		c0,0.61-0.61,0.43-1.81-0.54c-0.49-0.48-0.73-0.91-0.73-1.27C391.09,467.16,391.34,466.97,391.7,466.97z M389.09,472.76
		c0.24,0,0.42,0.12,0.54,0.36c0.12,0.24,0,0.36-0.36,0.36s-0.54-0.12-0.54-0.36C388.73,472.88,388.85,472.76,389.09,472.76z
		 M385.45,480.57c-0.24,0.12-0.48,0.12-0.73,0c-0.24-0.12-0.3-0.27-0.18-0.45c0.12-0.18,0.3-0.27,0.54-0.27
		c0.24,0,0.39,0.09,0.45,0.27C385.6,480.3,385.57,480.45,385.45,480.57z M386.52,502.8c-0.3,0-0.45-0.18-0.45-0.54
		s0.12-0.54,0.36-0.54c0.36,0,0.54,0.18,0.54,0.54S386.82,502.8,386.52,502.8z M386.72,494.99c0.12,0,0.18,0.12,0.18,0.36
		c0,0.24-0.09,0.36-0.27,0.36C386.45,495.72,386.48,495.47,386.72,494.99z M387.02,486.78c-0.85,0.85-1.33,1.03-1.45,0.54
		c0-0.24,0.21-0.42,0.63-0.54c0.42-0.12,0.57-0.36,0.45-0.73c-0.12-0.12-0.12-0.3,0-0.54c0.12-0.24,0.24-0.42,0.36-0.54
		c0.12-0.12,0.24-0.18,0.36-0.18C388.11,485.27,387.99,485.94,387.02,486.78z M389.61,507.24c-0.18,0-0.27-0.12-0.27-0.36
		c0-0.24,0.09-0.36,0.27-0.36c0.18,0,0.27,0.12,0.27,0.36C389.88,507.12,389.79,507.24,389.61,507.24z M390.09,504.43
		c-0.12,0-0.24-0.12-0.36-0.36c-0.12-0.24-0.18-0.48-0.18-0.73c0-0.24,0-0.42,0-0.54c0.48,0.12,0.79,0.42,0.91,0.91
		C390.46,504.19,390.34,504.43,390.09,504.43z M392.06,505.61c-0.36,0-0.54-0.12-0.54-0.36c0-0.24,0.18-0.36,0.54-0.36
		s0.54,0.12,0.54,0.36C392.6,505.49,392.42,505.61,392.06,505.61z M397.75,510.22l0.36-0.18l0.18,0.18
		C398.06,510.34,397.87,510.34,397.75,510.22z M414.38,505.58c-5.38,6.54-13.47,6.84-19.24,0.64c-5.03-5.42-6.58-12.07-6.61-16.36
		c-0.01-3.94,0.27-7.28,0.9-10.21c-0.06-0.21-0.09-0.56-0.09-1.07v-0.91l0.33,0.97c0.56-2.2,1.34-4.17,2.39-5.98
		c-0.14-0.02-0.26-0.07-0.36-0.16c-0.12-0.12-0.12-0.18,0-0.18c0.12-0.24,0.27-0.36,0.45-0.36c0.1,0,0.18,0.04,0.26,0.11
		c0.59-0.94,1.24-1.84,1.99-2.72c4.43-5.2,10.68-6.21,15.87-3.03c0.47-0.35,0.76-0.36,0.84-0.01c0,0.16-0.1,0.29-0.28,0.39
		c0.99,0.67,1.94,1.49,2.82,2.48c1.83,2.06,3.25,4.57,4.29,7.32c0.05-0.16,0.11-0.25,0.21-0.25c0.18,0,0.27,0.27,0.27,0.82
		c0,0.28-0.02,0.49-0.05,0.62C421.41,486.96,420.13,498.58,414.38,505.58z M420.54,504.2c0,0.06-0.21,0.09-0.63,0.09
		c-0.42,0-0.63-0.21-0.63-0.63c0-0.43,0.24-0.64,0.73-0.64c0.36,0,0.58,0.06,0.63,0.18c0.06,0.12,0.09,0.24,0.09,0.36
		C420.6,503.92,420.54,504.13,420.54,504.2z M420.78,473.91c0-0.24,0.12-0.24,0.36,0c0.12,0.12,0.18,0.54,0.18,1.27v0.91l-0.36-1.09
		C420.85,474.51,420.78,474.15,420.78,473.91z M421.58,481c-0.24,0-0.42-0.12-0.54-0.36c-0.12-0.24,0-0.36,0.36-0.36
		s0.54,0.12,0.54,0.36C421.94,480.88,421.82,481,421.58,481z M424.03,499.21c-0.06,0.84-0.21,1.27-0.45,1.27
		c-0.36,0-0.66-0.67-0.91-2c0-0.36,0.09-0.61,0.27-0.73c0.18-0.12,0.39-0.12,0.63,0C423.94,497.88,424.1,498.36,424.03,499.21z
		 M423.9,492.37c-0.24,0-0.39-0.03-0.45-0.09c-0.06-0.06-0.09-0.15-0.09-0.27c0.24-0.61,0.54-0.73,0.91-0.36
		C424.75,492.12,424.63,492.37,423.9,492.37z M426.81,480.96c-0.24,0.12-0.48,0.12-0.73,0c-0.24-0.12-0.3-0.27-0.18-0.45
		c0.12-0.18,0.3-0.27,0.54-0.27c0.24,0,0.39,0.09,0.45,0.27C426.96,480.69,426.93,480.84,426.81,480.96z"/>
	<path class="st0" d="M318.6,505.98c-0.03,0.35-0.07,0.62-0.13,0.82c0.36-0.41,0.72-0.82,1.09-1.2c-0.4-0.38-0.8-0.77-1.19-1.15
		c-0.03,0.06-0.05,0.11-0.08,0.17C318.54,504.82,318.65,505.26,318.6,505.98z"/>
	<path class="st0" d="M314.56,509.78c0.13,0,0.24,0.01,0.33,0.03c0.27-0.14,0.55-0.28,0.82-0.44c0.91-0.52,1.65-1.31,2.38-2.14
		c-0.23-0.04-0.44-0.37-0.62-0.98c-0.05,0.08-0.1,0.17-0.17,0.24c-2.36,2.85-5.44,3.41-8.85,2.45c-3.36-0.95-5-3.42-5.48-6.74
		c-0.01-0.04-0.01-0.09-0.02-0.13c0,0,0,0,0,0c-0.14,0-0.15-0.14-0.05-0.42c-0.16-1.22-0.29-2.44-0.29-3.66
		c-0.03-9.69-0.02-19.39-0.02-29.08c0-0.19,0-0.39,0.01-0.58c-0.21-0.26-0.21-0.44,0.02-0.52c0.03-0.5,0.06-1.02,0.09-1.6
		c4.16,0,8.05,0.04,11.93-0.04c-0.02-0.01-0.03-0.02-0.05-0.03c-0.36-0.24-0.6-0.54-0.73-0.91c0-0.36,0.06-0.54,0.18-0.54
		c0.24,0,0.54,0.24,0.91,0.73c0.2,0.26,0.32,0.47,0.37,0.62c0.41-0.21,0.82-0.63,1.24-0.89c-0.54-0.31-1.07-0.87-1.62-0.88
		c-2.99-0.09-5.99-0.04-8.99-0.04c-3.37,0-3.37,0-3.37-3.49c0-3.56,0-7.11,0-10.67c-0.36-0.12-0.73-0.24-1.09-0.36
		c-0.51,0.8-1.21,1.54-1.49,2.42c-0.61,1.91-1.39,3.71-2.36,5.37c0.06,0.09,0.09,0.21,0.09,0.37c0,0.36-0.12,0.54-0.36,0.54
		c-0.1,0-0.19-0.02-0.26-0.05c-1.14,1.73-2.53,3.3-4.26,4.63c-1.28,0.99-2.73,1.77-4.75,3.06c2.48,0.12,4.24,0.21,6.31,0.31
		c0,1.1,0,2.05,0,2.99c0,3.77,0,7.54,0,11.3c0.03,0.21,0.05,0.5,0.05,0.87v0.91l-0.05-0.14c0,1.45,0,2.9,0.01,4.35
		c0.04,0,0.07-0.01,0.11-0.01c0.36,0,0.54,0.12,0.54,0.36c0,0.24-0.12,0.36-0.36,0.36c-0.11,0-0.21-0.03-0.29-0.08
		c0,3.54,0,7.09,0.02,10.63c0.01,2.37,0.15,4.75,0.32,7.12c0.18,2.41,1.5,4.23,3.66,5.12c3.17,1.3,6.34,1.89,9.48,1.66
		c-0.04-0.05-0.06-0.11-0.06-0.19c0-0.24,0.18-0.36,0.54-0.36s0.54,0.12,0.54,0.36c0,0.03-0.01,0.06-0.02,0.09
		c1.67-0.22,3.32-0.67,4.95-1.39C313.9,509.96,314.13,509.78,314.56,509.78z M293.89,465.91c-0.12,0.12-0.36,0.06-0.73-0.18
		c-0.36-0.24-0.6-0.54-0.73-0.91c0-0.36,0.06-0.54,0.18-0.54c0.24,0,0.54,0.24,0.91,0.73C293.89,465.48,294.01,465.79,293.89,465.91
		z M297.17,464.4c0.18,0,0.15,0.24-0.09,0.73c-0.12,0-0.18-0.12-0.18-0.36C296.9,464.52,296.99,464.4,297.17,464.4z M297.16,505.56
		c-0.06,0.84-0.21,1.27-0.45,1.27c-0.36,0-0.66-0.67-0.91-2c0-0.36,0.09-0.61,0.27-0.73c0.18-0.12,0.39-0.12,0.63,0
		C297.07,504.23,297.23,504.72,297.16,505.56z M297.04,498.72c-0.24,0-0.39-0.03-0.45-0.09c-0.06-0.06-0.09-0.15-0.09-0.27
		c0.24-0.61,0.54-0.73,0.91-0.36C297.88,498.48,297.76,498.72,297.04,498.72z M297.4,470.26c-0.85,0.85-1.33,1.03-1.45,0.54
		c0-0.24,0.21-0.42,0.63-0.54c0.42-0.12,0.57-0.36,0.45-0.73c-0.12-0.12-0.12-0.3,0-0.54c0.12-0.24,0.24-0.42,0.36-0.54
		c0.12-0.12,0.24-0.18,0.36-0.18C298.49,468.75,298.37,469.41,297.4,470.26z M299.94,487.31c-0.24,0.12-0.48,0.12-0.73,0
		c-0.24-0.12-0.3-0.27-0.18-0.45c0.12-0.18,0.3-0.27,0.54-0.27c0.24,0,0.39,0.09,0.45,0.27
		C300.09,487.04,300.06,487.19,299.94,487.31z M301.09,479.62c-0.12,0.18-0.3,0.27-0.54,0.27c-0.24,0-0.39-0.09-0.45-0.27
		c-0.06-0.18-0.03-0.33,0.09-0.45c0.24-0.12,0.48-0.12,0.73,0C301.15,479.29,301.21,479.44,301.09,479.62z M302.84,509.16
		c-0.3,0-0.45-0.18-0.45-0.54s0.12-0.54,0.36-0.54c0.36,0,0.54,0.18,0.54,0.54S303.14,509.16,302.84,509.16z M306.42,510.79
		c-0.12,0-0.24-0.12-0.36-0.36c-0.12-0.24-0.18-0.48-0.18-0.73c0-0.24,0-0.42,0-0.54c0.48,0.12,0.79,0.42,0.91,0.91
		C306.78,510.55,306.66,510.79,306.42,510.79z"/>
	<path class="st0" d="M518.62,485.23c-1.06-0.62-2.17-1.15-3.28-1.68c0.05,0.17,0.02,0.31-0.09,0.42c-0.24,0.12-0.48,0.12-0.73,0
		c-0.24-0.12-0.3-0.27-0.18-0.45c0.1-0.15,0.24-0.22,0.42-0.24c-1.48-0.69-2.98-1.35-4.42-2.12c-1.93-1.02-3.91-2.08-5.55-3.48
		c-0.88-0.75-1.53-1.63-1.97-2.58c-0.01,0.01-0.01,0.01-0.02,0.02c-0.12,0.12-0.27,0.18-0.45,0.18c-0.18,0-0.33-0.06-0.45-0.18
		c-0.12-0.12-0.12-0.18,0-0.18c0.12-0.24,0.27-0.36,0.45-0.36c0.13,0,0.23,0.08,0.33,0.2c-0.41-1.01-0.57-2.08-0.5-3.15
		c-0.09-0.07-0.18-0.14-0.29-0.22c-0.49-0.48-0.73-0.91-0.73-1.27c0.12-0.36,0.36-0.54,0.73-0.54c0.15,0.08,0.34,0.24,0.56,0.48
		c0.2-0.67,0.48-1.33,0.87-1.95c1.96-3.16,5.56-4.4,9.22-3.05c4.18,1.54,6.74,4.63,8.12,8.78c0.27,0.81,0.61,1.6,0.92,2.39
		c0.26-0.08,0.52-0.15,0.77-0.23c0-0.03,0-0.06,0-0.08c-0.11,0.09-0.25,0.15-0.41,0.15c-0.18,0-0.33-0.06-0.45-0.18
		c-0.12-0.12-0.12-0.18,0-0.18c0.12-0.24,0.27-0.36,0.45-0.36c0.15,0,0.28,0.11,0.39,0.28c-0.06-0.98-0.11-1.96-0.17-2.95
		c-0.2-0.13-0.42-0.3-0.68-0.5c-0.49-0.48-0.73-0.91-0.73-1.27c0.12-0.36,0.36-0.54,0.73-0.54c0.15,0.08,0.35,0.25,0.58,0.5
		c-0.07-1.22-0.14-2.47-0.21-3.78c0,0,0,0,0,0c-0.48,0.24-0.73,0.12-0.73-0.36c0-0.36,0.18-0.54,0.54-0.54
		c0.05,0,0.09,0.01,0.13,0.01c-0.05-0.96-0.11-1.94-0.17-2.97c-1.65,2.12-3.09,2.15-4.58,1.8c0.01,0.04,0.04,0.07,0.04,0.13
		c-0.24,0.61-0.54,0.73-0.91,0.36c-0.41-0.41-0.36-0.63,0.09-0.7c-0.28-0.08-0.56-0.16-0.85-0.24c-2.66-0.69-5.57-1.16-8.26-0.81
		c-1.82,0.23-3.43,0.8-4.82,1.64c0.08,0.02,0.14,0.04,0.17,0.07c0.06,0.06,0.09,0.15,0.09,0.27c0,0.24-0.12,0.43-0.36,0.54
		c-0.47,0.24-0.71,0.12-0.72-0.33c-2.02,1.52-3.46,3.74-4.22,6.54c-1.37,5.04-0.03,9.49,4.2,12.7c1.39,1.06,2.89,1.98,4.4,2.88
		c-0.15-0.24-0.26-0.46-0.32-0.65c0-0.61,0.61-0.43,1.81,0.54c0.49,0.48,0.73,0.91,0.73,1.27c-0.02,0.05-0.04,0.09-0.06,0.14
		c0.34,0.21,0.68,0.41,1.02,0.62c2.52,1.59,5.27,2.93,7.51,4.85c3.74,3.22,4.15,9.09,1.28,12.68c-1.51,1.88-3.87,2.94-6.35,3.07
		c0.06,0.06,0.09,0.15,0.09,0.27c0,0.24-0.12,0.36-0.36,0.36c-0.24,0-0.36-0.12-0.36-0.36c0-0.12,0.03-0.2,0.09-0.26
		c-1.92-0.01-3.87-0.57-5.56-1.74c-1.49-1.04-2.97-2.34-3.89-3.87c-1.54-2.53-2.63-5.34-3.91-8.03c-0.22-0.46-0.49-0.9-1.09-2
		c0,3.28,0,6.3,0,9.35c0.03-0.01,0.06-0.02,0.1-0.02c0.36,0,0.54,0.18,0.54,0.54s-0.15,0.54-0.45,0.54c-0.07,0-0.14-0.01-0.19-0.03
		c0,1.89,0,3.81,0,5.82c1.06-1.14,2.06-1.68,3.05-1.86c0.04-0.13,0.1-0.22,0.24-0.22c0.11,0,0.18,0.07,0.22,0.16
		c1.09-0.08,2.17,0.25,3.28,0.65c1.89,0.69,3.86,1.28,5.84,1.59c4.58,0.73,9-0.49,12.19-3.02c0.03-0.08,0.11-0.14,0.21-0.18
		c1.77-1.47,3.15-3.35,3.92-5.54C527.91,495.89,525.36,489.16,518.62,485.23z M498.92,475.73c0-0.24,0.12-0.36,0.36-0.36
		c0.24,0,0.42,0.12,0.54,0.36c0.12,0.24,0,0.36-0.36,0.36S498.92,475.98,498.92,475.73z M499.72,482.47
		c-0.12-0.12-0.18-0.54-0.18-1.27v-0.91l0.36,1.09c0.12,0.48,0.18,0.85,0.18,1.09C500.08,482.71,499.96,482.71,499.72,482.47z
		 M502.71,480.11c-0.18,0-0.27-0.27-0.27-0.82s0.06-0.82,0.18-0.82c0.24,0,0.36,0.27,0.36,0.82S502.89,480.11,502.71,480.11z
		 M506.59,479.28c0.18,0,0.27,0.27,0.27,0.82s-0.06,0.82-0.18,0.82c-0.24,0-0.36-0.27-0.36-0.82S506.41,479.28,506.59,479.28z
		 M507.41,484.45c-0.12,0.24-0.27,0.36-0.45,0.36c-0.18,0-0.33-0.12-0.45-0.36c-0.12,0-0.12-0.06,0-0.18
		c0.12-0.12,0.27-0.18,0.45-0.18c0.18,0,0.33,0.06,0.45,0.18C507.53,484.39,507.53,484.45,507.41,484.45z M510.01,484.02
		c-0.24,0-0.42-0.12-0.54-0.36c-0.12-0.24,0-0.36,0.36-0.36s0.54,0.12,0.54,0.36C510.37,483.9,510.26,484.02,510.01,484.02z
		 M516.82,490.19c-0.85,0.85-1.33,1.03-1.45,0.54c0-0.24,0.21-0.42,0.63-0.54c0.42-0.12,0.57-0.36,0.45-0.73
		c-0.12-0.12-0.12-0.3,0-0.54c0.12-0.24,0.24-0.42,0.36-0.54c0.12-0.12,0.24-0.18,0.36-0.18
		C517.9,488.68,517.78,489.34,516.82,490.19z M496.83,498.33c-0.18,0-0.15-0.24,0.09-0.73c0.12,0,0.18,0.12,0.18,0.36
		C497.1,498.21,497.01,498.33,496.83,498.33z M500.29,507.04c-0.12,0-0.24-0.12-0.36-0.36c-0.12-0.24-0.18-0.48-0.18-0.73
		c0-0.24,0-0.42,0-0.54c0.48,0.12,0.79,0.42,0.91,0.91C500.65,506.8,500.53,507.04,500.29,507.04z M502.26,508.22
		c-0.36,0-0.54-0.12-0.54-0.36c0-0.24,0.18-0.36,0.54-0.36s0.54,0.12,0.54,0.36C502.8,508.1,502.62,508.22,502.26,508.22z
		 M519.86,491.06c0.12-0.24,0.45-0.48,1-0.73c0.54-0.24,0.88-0.27,1-0.09c0.12,0.18,0.06,0.39-0.18,0.63
		c-0.48,0.36-1.03,0.54-1.63,0.54C519.8,491.3,519.74,491.18,519.86,491.06z M519.89,507.83c-0.12,0-0.24-0.12-0.36-0.36
		c-0.12-0.24-0.18-0.48-0.18-0.73c0-0.24,0-0.42,0-0.54c0.48,0.12,0.79,0.42,0.91,0.91C520.25,507.59,520.13,507.83,519.89,507.83z
		 M520.97,499.24c-0.24,0-0.54-0.24-0.91-0.73c-0.36-0.48-0.49-0.79-0.36-0.91c0.12-0.12,0.36-0.06,0.73,0.18
		c0.36,0.24,0.6,0.54,0.73,0.91C521.15,499.06,521.09,499.24,520.97,499.24z M521.86,501.58c-0.12,0-0.24-0.09-0.36-0.27
		c-0.12-0.18-0.06-0.27,0.18-0.27c0.24,0,0.36,0.12,0.36,0.36C522.04,501.52,521.98,501.58,521.86,501.58z"/>
	<path class="st0" d="M855.11,443.58c2.82,0,4.9-2.06,4.84-4.8c-0.03-1.57-0.84-2.96-2.04-3.81c-0.03-0.02-0.05-0.03-0.07-0.06
		c-0.76-0.52-1.66-0.82-2.64-0.83c-2.76-0.01-4.94,2.06-4.98,4.73C850.19,441.55,852.26,443.58,855.11,443.58z M853.19,438.49
		c0.3,0,0.51,0.12,0.63,0.36c0,0.12-0.06,0.21-0.18,0.27c-0.12,0.06-0.27,0.09-0.45,0.09s-0.33-0.03-0.45-0.09
		c-0.12-0.06-0.12-0.15,0-0.27C852.73,438.61,852.88,438.49,853.19,438.49z M852.39,436.16c0.24,0,0.36,0.06,0.36,0.18
		c0,0.24-0.12,0.36-0.36,0.36c-0.24,0-0.36-0.09-0.36-0.27C852.03,436.25,852.15,436.16,852.39,436.16z"/>
</g>
</svg>
